<?xml version="1.0" standalone="no"?>
<!DOCTYPE svg PUBLIC "-//W3C//DTD SVG 1.1//EN" "http://www.w3.org/Graphics/SVG/1.1/DTD/svg11.dtd" >
<svg>
<metadata>
Created by FontForge 20110222 at Mon Mar  7 12:48:42 2011
 By www-data
Tup Wanders 2000 CC by
</metadata>
<defs>
<font id="Quickie" horiz-adv-x="339" >
  <font-face 
    font-family="Quickie"
    font-weight="400"
    font-stretch="normal"
    units-per-em="1000"
    panose-1="0 0 4 0 0 0 0 0 0 0"
    ascent="800"
    descent="-200"
    x-height="678"
    cap-height="848"
    bbox="-126 -455 967 1037"
    underline-thickness="20"
    underline-position="-123"
    unicode-range="U+0020-00A9"
  />
    <missing-glyph />
    <glyph glyph-name="space" unicode=" " horiz-adv-x="405" 
 />
    <glyph glyph-name="exclam" unicode="!" horiz-adv-x="210" 
d="M98 94q-11 -17 -23 -35t-12 -36q0 -10 5.5 -29t13.5 -23q17 0 37 35t20 60q-17 19 -31 19q3 0 -18 -13q-21 -15 -21 8q0 12 9 20q16 15 30 15q16 0 37 -14q24 -17 24 -35q0 -31 -23 -73q-27 -52 -63 -52q-23 0 -38 31q-12 25 -12 51t13 46t26 39q4 8 13 8q15 0 15 -15
q0 -4 -2 -7zM104 779q-14 -13 -42 -40q-5 -4 -11 -4q-15 0 -15 15q0 6 4 11q22 19 43 39q24 24 34 45q5 10 15 10q14 0 14 -14q0 -9 -7 -44.5t-7 -56.5q0 -38 9.5 -114.5t9.5 -112.5q0 -225 -16 -330q-2 -15 -15 -15q-15 0 -15 17q0 26 -7 69q-9 51 -11 68q-9 113 -34 331
q-7 38 -17 119q-1 16 15 16q14 0 15 -13t17 -118q3 -22 34 -333l1 -7q3 65 3 196q0 38 -9.5 114t-9.5 114q0 20 2 38z" />
    <glyph glyph-name="quotedbl" unicode="&#x22;" horiz-adv-x="234" 
d="M12 676l-1 -3q-3 -11 -14 -11q-16 0 -16 16q0 7 16 33q12 30 41 95q4 8 12 8q16 0 16 -15q0 -3 -2 -7q-10 -31 -41 -95l-12 -21q-1 3 -1 5q-7 -22 -14 -22q-6 0 -13 24q8 24 21 24q37 0 59 -36q20 -32 20 -75q0 -53 -22 -53q-16 0 -14 18q1 12 8 51q4 27 4 50
q0 86 -39 109q-7 5 -7 13q0 15 15 15q4 0 8 -2q53 -33 53 -135q0 -23 -5 -52q-6 -40 -7 -51l-29 7q6 14 6 32q0 26 -12.5 49t-29.5 29zM179 789q-11 -27 -38 -79q4 -4 25 -46q12 -24 12 -51q0 -16 -11 -71q-3 -14 -15 -14q-16 0 -15 18q1 22 15.5 66.5t14.5 68.5
q0 63 -34 82q-8 4 -8 13q0 15 15 15q3 0 7 -2q50 -27 50 -108q0 -25 -14.5 -69.5t-15.5 -67.5l-30 4q10 48 10 64q0 32 -23 71q-1 2 -3 5h3l-20 21q9 12 49 94q4 8 12 8q16 0 16 -15q0 -3 -2 -7z" />
    <glyph glyph-name="numbersign" unicode="#" horiz-adv-x="537" 
d="M76 684q33 42 68 100q5 7 13 7q15 0 15 -15q0 -4 -2 -8q-37 -59 -70 -102q-5 -6 -12 -6q-15 0 -15 15q0 5 3 9zM197 71q-6 36 -17 112q-2 40 -9 121q-11 67 -21 134q-13 79 -13 134q0 140 11 211q2 13 15 13q18 0 15 -17q-11 -70 -11 -207q0 -54 13 -133q10 -65 21 -131
q2 -41 9 -121q6 -41 13 -82q7 -48 7 -82q0 -16 -15 -16t-15 16q0 2 -4 25q-3 18 1 23zM189 2q3 11 5.5 22t14.5 11q18 0 15 -18q-10 -27 -28 -82q-4 -14 -14 -14q-12 0 -15 16q-6 58 -22 182q-8 38 -23 119q-16 103 -32.5 208.5t-16.5 205.5q0 -7 6 51q1 13 15 13
q17 0 15 -17q-6 -56 -6 -47q0 -99 16 -205q16 -102 33 -205q8 -37 23 -119q2 -11 14 -121zM293 715q0 -95 9 -204q16 -196 17 -204q9 -83 27 -248q4 -34 8 -56q30 63 30 89q0 15 15 15t15 -15q0 -24 -26 -87q-27 -66 -44 -66q-7 0 -10 14q-11 41 -18 105q-9 91 -12 107
q-10 68 -15 140q0 7 -17 205q-9 109 -9 205q0 15 15 15t15 -15zM295 702l-6 -6q-7 -7 -9 -7q-5 0 -6 14q-15 4 -11 10q25 35 78 106q3 4 10 4q16 0 17 -11v-117q0 -57 6 -145q8 -103 9 -146q3 -111 14 -183q14 -96 14 -122q0 -24 -5.5 -32.5t-11.5 -8.5q-10 0 -13 12
q2 9 3 24q-1 8 6 8q8 1 8 -6q2 -14 8 -18q-2 1 -3 4q-9 -15 -21 -1q-1 -2 -3 -4q2 13 2 27q0 21 -14 113q-11 73 -14 187q-1 42 -9 145q-6 89 -6 146q0 12 1 36.5t1 36.5q-17 -24 -53 -73q0 1 -13 8q-6 -4 -7 13l-2 -2q0 1 3 3l6 7q8 8 17 8q14 0 14 -14q0 -5 -10 -16z
M32 474q23 3 72 16q58 22 150 70q119 63 148 76q39 19 74 22q16 2 16 -15q0 -14 -14 -15q-29 -3 -65 -20q-31 -15 -62 -31q-76 -37 -153 -73q-90 -42 -158 -60q-19 -4 -19 15q0 12 11 15zM552 548q-4 -10 -12 -10q-17 0 -17 17q0 10 12 18l3 2q11 -11 0 -18q6 2 10 -2h2
q-29 -22 -93 -54q-50 -24 -100 -47q-115 -58 -170 -89q-92 -53 -158 -109q-5 -3 -10 -3q-15 0 -15 15q0 7 5 12q102 84 334 200q65 34 182 93q12 11 23 11q18 0 18 -17q0 -11 -12 -18z" />
    <glyph glyph-name="dollar" unicode="$" horiz-adv-x="444" 
d="M357 807q9 -58 26 -179q2 -17 -15 -17q-13 0 -15 13q-8 59 -26 179q-2 17 15 17q13 0 15 -13zM340 783q-71 44 -153 44q-76 0 -112 -70q-28 -56 -28 -146q0 -93 79 -195q69 -89 122 -190q2 -4 2 -7q0 -15 -15 -15q-9 0 -13 8q-53 99 -120 186q-85 110 -85 213
q0 96 31 159q44 87 139 87q91 0 169 -48q7 -5 7 -13q0 -15 -15 -15q-4 0 -8 2zM57 171q-14 -98 -37 -172q78 -44 170 -44q76 0 130.5 48t54.5 120q0 44 -18 79q-3 7 -43 67q-21 32 -52 91q-30 56 -53 91q-63 90 -81 125q-39 76 -39 143q0 48 30 84t73 36q27 0 54 -16
q7 -5 7 -13q0 -15 -15 -15q-4 0 -8 2q-18 11 -37 11q-30 0 -52 -25.5t-22 -63.5q0 -62 38 -133q16 -30 76 -119q24 -33 65.5 -108t65.5 -110q41 -61 41 -126q0 -86 -66 -143q-62 -55 -149 -55q-36 0 -113 18q-99 24 -89 54q24 77 39 178q2 13 15 13q17 0 15 -17zM60 167
q0 -18 -6.5 -54t-6.5 -52q0 -46 44 -80q41 -32 93 -32q7 0 17 6q15 9 17 10q71 29 71 105q0 45 -32 96q-48 77 -53 88q-1 3 -1 7q0 14 15 14q10 0 14 -9.5t55 -90.5q32 -52 32 -105q0 -59 -29 -90q-15 -17 -77 -53q-15 -8 -29 -8q-61 0 -112 38q-55 43 -55 104q0 16 6.5 52
t6.5 54q0 15 15 15t15 -15zM164 -133q5 -7 5 -13q0 -9 -14 -9q-29 0 -22 22q9 32 11 85q2 67 6 87.5t11 71.5q4 56 2 171q-1 112 3 170q1 15 7 53q4 29 4 57q0 21 -4 81q-3 48 -1 85q3 47 15 118q19 115 20 120q2 13 15 13q17 0 15 -17q-15 -79 -35 -236q-2 -36 1 -84
q4 -59 4 -80q0 -28 -4 -58q-6 -40 -7 -54q-4 -58 -2.5 -171.5t-2.5 -169.5q-4 -23 -12 -75q-3 -21 -5 -84q-2 -52 -10 -83zM222 -186l-1 -3q-8 -15 -16 -15q-9 0 -14 14.5t-4 27.5q2 20 2 21q0 76 18 184q8 46 5 127q-3 91 0 126q7 47 18 144q3 31 0 92t0 93q2 22 14.5 68.5
t14.5 70.5q0 37 12 112q11 31 35 99q3 10 14 10q21 0 14 -20l-26 -72q-15 -42 -16 -75q-1 -18 -3 -58q-2 -23 -14.5 -69.5t-14.5 -67.5q-3 -32 0 -93t0 -92q-7 -45 -18 -144q-3 -36 0 -128q3 -81 -5 -127q-6 -37 -11 -98q-5 -72 -8 -98q13 -2 13 -16q0 -9 -9 -13z" />
    <glyph glyph-name="percent" unicode="%" horiz-adv-x="580" 
d="M94 766q-1 0 -31 -28q-20 -18 -35 -48t-15 -55q0 -34 39 -59q36 -23 77 -23q32 0 54 38q20 33 20 73q0 36 -21 61.5t-51 25.5t-51 -34q-19 -30 -19 -61q0 -22 24 -58q25 -39 44 -39q11 0 19.5 15t8.5 31q0 52 -16 75q-18 27 -65 31q-13 1 -13 15q0 13 13 15q8 1 15 1
q49 0 74 -45q22 -38 22 -92q0 -22 -12 -45q-17 -31 -46 -31q-37 0 -70 52q-28 46 -28 75q0 45 27 83q30 42 73 42q45 0 75 -37q27 -34 27 -80t-24 -89q-30 -52 -80 -52q-49 0 -93 28q-53 32 -53 84q0 61 75 140q20 21 35 21q12 0 25 -11q5 -4 5 -11q0 -15 -15 -15zM101 45
q3 10 12 30q27 46 74 141q15 41 31 81q18 46 38 77q34 53 96 174q59 118 91 166q21 25 61 75q-21 -2 -41 -5q-24 -4 -40 -12q-4 -2 -7 -2q-15 0 -15 15q0 9 8 13q23 12 61 17q54 8 63 10q19 4 19 -12q0 -5 -3 -10q-11 -22 -39 -54q-31 -36 -41 -51q-33 -49 -92 -166
q-61 -121 -95 -174q-19 -30 -67 -152q-8 -20 -76 -145q-7 -16 -13.5 -31t-21.5 -15q-5 0 -13 2t-11 2q-27 0 -69 -29q-6 -4 -12 -4q-13 0 -13 13q0 5 3 10q24 45 64 127q75 180 153 331q51 101 119 191q13 17 43 69q25 44 46 66q5 5 11 5q15 0 15 -15q0 -6 -4 -10
q-20 -22 -45 -65q-30 -51 -42 -68q-59 -78 -117 -190q-5 -10 -98 -200q-9 -19 -53 -126q-9 -22 -42 -82q19 7 41 7q6 0 21 -4zM442 37q11 8 11 34q0 142 -49 142q-16 0 -17 -3q-5 -8 -10 -26q0 -4 -4 -4t-4 4q-2 13 0 34q12 25 35 25q79 0 79 -172q0 -21 -10 -40
q-11 -24 -31 -24q-43 0 -73 38t-30 79q0 75 61 122q27 21 54 21q44 0 68 -41q19 -34 19 -79q0 -7 1 -28q1 -16 0 -26q-1 -15 -7 -28q-13 -28 -62 -53q-45 -23 -78 -23q-47 0 -81.5 34.5t-34.5 81.5q0 36 22 71.5t54 50.5q3 2 14 12t19 10q14 0 14 -15q0 -10 -10 -14
q-14 0 -33 -1q-50 -26 -50 -114q0 -35 25.5 -60.5t60.5 -25.5q26 0 65 20t47 38q5 10 6 23q0 9 -1 25t-1 22q0 38 -15.5 64t-41.5 26q-16 0 -36 -15q-49 -37 -49 -98q0 -31 22.5 -59t50.5 -28z" />
    <glyph glyph-name="ampersand" unicode="&#x26;" horiz-adv-x="711" 
d="M191 774q-98 -97 -98 -179q0 -102 163 -243q23 -20 50 -55q40 -54 44 -58q27 -32 108 -151q40 -57 73 -57q13 0 36 23q19 18 30 34q15 23 39 79q22 49 44 76q2 2 4 0t0 -4q-19 -24 -33 -82q-14 -62 -30 -85q-47 -71 -90 -71q-49 0 -97 71q-34 50 -106 147q-5 6 -44 57
q-25 34 -48 54q-173 149 -173 265q0 94 106 201q5 4 11 4q15 0 15 -15q0 -6 -4 -11zM167 739q-36 -54 -36 -85q0 -73 57 -148q84 -110 150 -168q70 -61 122 -131q26 -38 53 -76q40 -52 67 -52q4 0 10 -2q3 -2 4 0q5 7 12 22q1 3 4 2t2 -4q0 -12 -2 -28q-10 -20 -30 -20
q-39 0 -83 54q-31 43 -61 86q-50 67 -118 126.5t-154 172.5q-63 83 -63 166q0 40 42 101q4 7 12 7q15 0 15 -15q0 -4 -3 -8zM194 771q39 0 57 -51q12 -35 12 -84q0 -106 -53 -177q-5 -6 -12 -6q-15 0 -15 15q0 5 3 9q47 63 47 159q0 33 -7 62q-11 43 -32 43q-6 0 -18 -2.5
t-17 -2.5q-16 -1 -16 15q0 20 51 20zM160 787q40 23 45 25q25 11 51 11q25 0 49 -24t24 -47q0 -63 -27 -124q-14 -34 -61 -112q-5 -7 -13 -7q-15 0 -15 15q0 4 2 8q45 74 58 104q26 58 26 116q0 11 -15 26t-28 15q-25 0 -82 -32q-3 -2 -7 -2q-15 0 -15 15q0 9 8 13zM172 391
q-125 -81 -125 -221q0 -75 53 -117q49 -40 128 -40q41 0 88 58q44 55 44 93q0 15 15 15t15 -15q0 -48 -51 -111q-55 -70 -111 -70q-89 0 -147 46q-64 51 -64 141q0 157 139 247q4 2 8 2q15 0 15 -15q0 -8 -7 -13zM106 336q-41 -55 -41 -83q0 -82 60 -137t144 -55
q23 0 47 40.5t34 40.5q15 0 15 -15q0 -5 -3 -9q-19 -28 -37 -56q-25 -31 -56 -31q-95 0 -164.5 63.5t-69.5 158.5q0 38 47 101q5 6 12 6q15 0 15 -15q0 -5 -3 -9zM371 441q12 4 25 4q34 0 58 -17q29 -19 29 -55q0 -27 -15 -64q-21 -53 -24 -61q-3 -11 -14 -11q-20 0 -14 19
q2 8 22 58q15 37 15 59q0 42 -57 42q-14 0 -29 -9t-28 -17q-5 -3 -10 -3q-13 0 -13 13q0 5 3 10q10 17 19 33.5t9 37.5q0 18 23 18q12 0 27 -5q86 -24 172 -24q35 0 55 6q20 7 20 -14q0 -11 -10 -14q-24 -8 -66 -8q-90 0 -179 26l-12 2q-2 -14 -6 -26zM458 419q6 0 20 2
q11 2 20 2q29 0 92 -14q5 26 41 77q4 6 12 6q15 0 15 -15q0 -4 -3 -9q-38 -55 -36 -77q1 -9 -4.5 -13.5t-14.5 -2.5q-67 18 -102 18q-8 0 -20 -2t-18 -2q-16 -1 -16 15q0 14 14 15z" />
    <glyph glyph-name="quotesingle" unicode="'" horiz-adv-x="178" 
d="M72 649q25 30 25 85q0 25 -3 34q-6 15 -27 18q-13 2 -13 15q0 17 17 15q56 -8 56 -82q0 -54 -19 -86q-13 -23 -58 -61q-6 -6 -13 -6q-14 0 -12 19q2 16 10.5 36t8.5 28q0 20 -34 47q-12 3 -12 13t11 22q20 21 59 65q5 5 12 5q15 0 15 -15q0 -5 -3 -10q-20 -20 -58 -61
l3 -3q37 -34 37 -64q0 -7 -2 -14z" />
    <glyph glyph-name="parenleft" unicode="(" horiz-adv-x="290" 
d="M177 774q-96 -84 -134 -188q-34 -91 -34 -234q0 -75 48 -172q37 -74 49 -94q32 -55 65 -80q7 11 42 54q-36 20 -69 76q-26 46 -51 92q-74 109 -74 273q0 94 29 146q24 42 98 99q8 11 25 29q5 3 9 3q15 0 15 -15q0 -8 -6 -12q-11 -5 -33 -17q-64 -50 -85.5 -96t-21.5 -137
q0 -155 68 -257q26 -46 52 -93q36 -59 73 -71q20 -6 7 -23q-22 -25 -60 -80q-4 -8 -12 -8q-18 0 -54 41q-22 27 -36 49q-16 26 -56 107q-52 104 -52 186q0 148 36 245q41 110 142 199q5 4 10 4q15 0 15 -15q0 -7 -5 -11z" />
    <glyph glyph-name="parenright" unicode=")" horiz-adv-x="237" 
d="M102 750v-1q0 -15 -15 -15t-15 15q0 55 16 55q5 0 12 -6q61 -56 79 -187q8 -61 8 -209q0 -81 -28 -167q-29 -89 -77 -150q-18 -22 -35 -43q-20 -27 -27 -47l-28 11q8 20 31 53.5t31 49.5q51 105 51 208q0 137 -17 216q-27 119 -97 160q-7 4 -7 13q0 22 79 102q5 4 11 4
q15 0 15 -15q0 -6 -4 -11q-18 -17 -36.5 -35.5t-29.5 -39.5q73 -51 100 -179q16 -80 16 -215q0 -148 -88 -275q-20 -29 -27 -48q-4 -10 -14 -10q-15 0 -15 15q0 19 37 67q26 34 51 67q78 126 78 269q0 128 -5 179q-11 113 -50 169z" />
    <glyph glyph-name="asterisk" unicode="*" horiz-adv-x="392" 
d="M310 689q-16 -3 -49 -7q-86 -4 -214 -27q-18 -3 -18 15q0 13 12 15q131 22 218 27q3 0 22.5 3.5t30.5 3.5q30 0 30 -20q0 -24 -17 -24q-15 0 -15 14zM200 829q-17 -68 -17 -85q0 -40 10.5 -107.5t10.5 -100.5q0 -15 -15 -15t-15 15q0 33 -10.5 100.5t-10.5 107.5
q0 21 17 93q3 11 15 11q19 0 15 -19zM92 790q89 -112 204 -201q6 -5 6 -12q0 -15 -15 -15q-5 0 -9 3q-119 92 -210 207q-3 4 -3 9q0 15 15 15q7 0 12 -6zM83 598q10 11 106 103q64 63 94 113q5 7 13 7q15 0 15 -15q0 -4 -2 -8q-30 -51 -96 -115q-99 -95 -108 -105
q-5 -5 -11 -5q-15 0 -15 15q0 5 4 10z" />
    <glyph glyph-name="plus" unicode="+" horiz-adv-x="639" 
d="M247 75q30 28 63 29q15 0 15 -15t-15 -15q-19 -1 -37 -16q-3 -2 -30 -30q-7 -6 -13 -6q-13 0 -13 17v74q8 28 7 73q-2 78 -2 73q4 145 20 306q5 23 14 77q2 13 15 13q18 0 15 -17q-6 -24 -14 -77q-21 -205 -18 -376q0 -47 -7 -78v-32zM257 647q37 11 111 34q4 2 8 2
q13 0 13 -13q0 -4 -2 -8q-27 -70 -39 -161q-6 -44 -14 -164q-2 -23 -11 -98q-8 -62 -8 -98q0 -19 5 -48q3 -17 -15 -17q-13 0 -15 13q-5 31 -5 52q0 36 8 99q10 76 11 99q7 112 12 154q11 86 33 151q-28 -8 -82 -25q-20 -7 -20 14q0 11 10 14zM587 370q-22 4 -56 2
q-52 -3 -55 -3q-101 0 -212 -8q-106 -9 -212 -17q-16 -1 -16 15q0 14 14 15q107 8 213 17q111 8 213 8q-8 0 62 3q38 2 61 -4.5t23 -22.5q0 -7 -6.5 -14.5t-13.5 -7.5q-17 0 -15 17z" />
    <glyph glyph-name="comma" unicode="," horiz-adv-x="168" 
d="M52 -64q37 49 37 95q0 32 -30 38q-12 3 -12 15q0 19 18 15q54 -12 54 -68q0 -47 -30 -94q-16 -25 -63 -76q-6 -6 -13 -6q-14 0 -14 14q0 4 3 9q22 41 22 74q0 29 -19 56.5t-19 32.5t5 9q40 36 81 61q4 2 8 2q15 0 15 -15q0 -8 -7 -13q-35 -21 -63 -45q29 -27 29 -78
q0 -12 -2 -26z" />
    <glyph glyph-name="hyphen" unicode="-" horiz-adv-x="365" 
d="M6 331q36 0 92 1t90 1q92 0 128 -9q11 -3 11 -15q0 -19 -19 -15q-32 9 -120 9q-34 0 -90 -1t-92 -1q-15 0 -15 15t15 15z" />
    <glyph glyph-name="hyphen" unicode="&#x2010;" horiz-adv-x="365" 
d="M6 331q36 0 92 1t90 1q92 0 128 -9q11 -3 11 -15q0 -19 -19 -15q-32 9 -120 9q-34 0 -90 -1t-92 -1q-15 0 -15 15t15 15z" />
    <glyph glyph-name="period" unicode="." horiz-adv-x="174" 
d="M85 95q-34 -38 -38 -42q-18 -26 -18 -53q0 -8 13.5 -22.5t19.5 -14.5q11 9 19 46q8 32 8 50q0 22 -9 25q-5 1 -17 1q-16 -1 -16 15q0 14 14 15q58 2 58 -56q0 -34 -12 -73q-17 -53 -45 -53q-19 0 -41 24t-22 43q0 35 20 64q7 11 44 51q5 5 11 5q15 0 15 -15q0 -6 -4 -10z
" />
    <glyph glyph-name="slash" unicode="/" horiz-adv-x="467" 
d="M68 36q16 64 55 186q105 263 171 393q41 81 95 154h-5q-10 0 -35 -9q-7 -3 -13.5 1t-6.5 11q0 14 29 23q14 4 26 4h17q10 -1 17 -1q16 0 16 -13q0 -5 -4 -11q-58 -75 -109 -175q-23 -47 -86 -187q-31 -68 -84 -202q-13 -33 -30 -95q-19 -72 -27 -95q-5 -14 -22 -14
q-1 0 -5 1h-6q-4 0 -27 -7t-33 -7q-17 0 -13 18q41 156 86 246q38 70 104 211q52 133 70 171q42 85 103 154q4 5 11 5q15 0 15 -15q0 -5 -4 -10q-58 -66 -99 -150q-17 -35 -68 -165q-17 -45 -50 -108q-28 -54 -56 -107q-42 -85 -76 -213l3 1q17 6 34 6q1 0 7 -1z" />
    <glyph glyph-name="zero" unicode="0" horiz-adv-x="349" 
d="M229 75l-13 4q-2 -10 -9 -24q-20 -22 -30 -22q-15 0 -31 16l-22 28q-38 45 -60 119q-19 57 -37 114q-18 62 -18 119q0 226 127 226q89 0 139 -110q38 -85 38 -183q0 -141 -54 -251q-29 -59 -39 -75q-33 -51 -63 -51q-35 0 -76 47q-33 36 -53 78q-51 108 -51 300
q0 79 36 147t100 105q4 2 8 2q15 0 15 -15q0 -9 -7 -13q-57 -33 -89.5 -93.5t-32.5 -132.5q0 -185 49 -288q14 -31 42 -64q35 -43 59 -43q16 0 42 45q8 11 34 65q50 103 50 237q0 93 -36 171q-42 92 -111 92q-57 0 -80 -67q-17 -47 -17 -129q0 -54 18 -115q18 -55 35 -110
q21 -67 54 -107q11 -15 31 -34q19 0 26 11q4 3 9 7l-7 12v0q44 58 44 165q0 52 -18 106q-10 32 -42 100q-35 76 -35 77q-27 42 -68 42q-17 0 -17 -11q0 -4 3 -9t3 -9q0 -15 -15 -15q-21 0 -21 33q0 41 47 41q53 0 86 -46q8 -12 45 -91q62 -136 62 -210v-14q-2 -115 -50 -177
z" />
    <glyph glyph-name="one" unicode="1" 
d="M-20 592q49 28 187 87q3 1 7 1q14 0 14 -16q0 -9 -9 -13q-67 -28 -185 -85q-4 -2 -7 -2q-15 0 -15 15q0 9 8 13zM109 624q-8 -66 -8 -63q0 -137 13 -346q12 -199 13 -196q-1 -4 -4 -4q-4 0 -11 6q-7 -8 -11 -8q-2 0 -3.5 4.5t-1.5 28.5q0 14 14 14t14 -14q0 -8 2 -22v2
q-7 -8 -11 -8q-2 0 -3 3q-1 -8 -15 1q-4 63 -13 191q-13 210 -13 348q0 -1 8 67q2 13 15 13q17 0 15 -17zM188 653q-3 -31 -9 -98q-16 -160 -16 -395q0 1 4 -71q3 -64 2 -68q-4 -10 -12 -10q-15 0 -18 18q-2 6 -2 12q0 20 15 20q12 0 14 -13q0 -6 3 -16q-1 1 -2 4
q-6 -13 -13 -13q-6 0 -13 9q0 -2 -1 -5q-1 15 -4 64q-3 40 -3 69q0 237 16 397q3 30 9 98q1 14 15 14q16 0 15 -16zM26 13q31 4 124 26q76 18 124 18q13 0 26 -1t13 -15q0 -16 -16 -15q-53 5 -135 -15q-108 -25 -132 -28q-17 -2 -17 15q0 13 13 15z" />
    <glyph glyph-name="two" unicode="2" horiz-adv-x="362" 
d="M41 421q20 4 20 65q0 16 -5 39q-6 30 -15 36q-4 -6 -15 -17q-6 -4 -12 -4q-13 0 -13 13q0 5 3 10q54 96 142 96q42 0 55 -36q6 -18 6 -69q0 -42 -27 -111q-22 -54 -45 -107q-61 -156 -86 -338q40 13 123 24t122 22q19 6 19 -14q0 -11 -11 -14q-35 -11 -134 -24
q-86 -11 -131 -31q-4 -2 -8 -2q-15 0 -13 18q24 199 91 369q22 52 43 103q27 68 27 105q0 41 -1 47q-5 28 -30 28q-71 0 -116 -80l-22 19q6 7 13 15t19 8q27 0 41 -41q10 -30 10 -64t-10 -60q-13 -35 -41 -35q-21 0 -35 32q-12 26 -12 49q0 45 3 60q5 33 27 52q5 3 10 3
q15 0 15 -15q0 -7 -5 -12q-16 -12 -19 -41q-1 -7 -1 -47q0 -10 5.5 -27.5t12.5 -23.5zM99 3l-1 -12q-10 -13 -20 -2q-3 1 -6 9q-4 40 27 163q12 46 42 138q16 50 55 150q33 69 33 103q0 72 -70 75q-14 1 -14 15q0 16 16 15q98 -5 98 -105q0 -41 -35 -115q-14 -28 -28 -73
q-19 -55 -27 -77q-16 -38 -40 -134q-31 -117 -27 -151q-1 0 -3 1zM281 22q1 35 4 100l1 10q-15 -39 -46 -115q-4 -9 -13 -9q-16 0 -16 15q0 3 1.5 6.5t39.5 98.5q23 60 48 95q6 8 14 8q17 0 13 -20q-8 -36 -16 -191q-1 -14 -15 -14q-16 0 -15 16z" />
    <glyph glyph-name="three" unicode="3" horiz-adv-x="336" 
d="M47 573q-10 -21 -20 -41q-10 -23 -10 -45q0 -25 9 -38q21 0 21 41q0 52 -14 80q-2 4 -2 7q0 15 15 15q16 0 25 -42q7 -30 7 -54q0 -77 -53 -77q-19 0 -30 26q-8 19 -8 42q0 27 10.5 51t21.5 47q5 9 13 9q16 0 16 -15q0 -3 -1 -6zM196 347q49 -4 76 -51q23 -39 23 -89
q0 -101 -66 -199q-28 -43 -69.5 -69.5t-83.5 -50.5q-18 -11 -33 -10q-13 2 -3 28q1 2 3 1t1 -3q-2 -7 -2 -11q0 -7 10 -1q8 6 15 11q25 21 60 49q47 27 78 72q60 91 60 183q0 44 -21 77t-56 33q-12 0 -24 -9q-11 10 -20 22q67 71 67 172q0 62 -9 89q-12 38 -45 38
q-84 0 -125 -70q-5 -7 -13 -7q-15 0 -15 15q0 4 2 8q49 84 151 84q54 0 73 -57q11 -33 11 -100q0 -91 -45 -155zM99 630q36 -7 39 -8q21 -6 32 -24q25 -36 25 -178q0 -61 -43 -102q-4 -4 -10 -4q-15 0 -15 15q0 6 5 11q33 32 33 80q0 77 -2 96q-7 70 -35 78q-11 2 -35 6
q-12 2 -12 15q0 18 18 15zM148 339q51 -40 72 -76q25 -43 25 -104q0 -69 -37 -145q-42 -86 -100 -99q-18 -4 -18 15q0 12 12 15q32 7 66 60q31 49 40 94q7 34 7 60q0 53 -21 89q-18 31 -64 67q-6 5 -6 12q0 15 15 15q5 0 9 -3z" />
    <glyph glyph-name="four" unicode="4" horiz-adv-x="507" 
d="M283 647q-35 -50 -78 -130q-19 -36 -103 -179q-65 -109 -96 -183q-4 -9 -14 -9q-15 0 -15 14q0 4 1 7q32 74 97 184q85 144 104 180q43 82 80 134q4 6 12 6q15 0 15 -15q0 -4 -3 -9zM70 170q47 9 78 9q8 0 19.5 -2t18.5 -2q-8 0 42 13q19 4 19 -15q0 -12 -11 -15
q-2 0 -25 -8q-17 -5 -25 -5q-7 0 -18.5 2t-19.5 2q-30 0 -76 -9q-60 -12 -76 -14q-17 -2 -17 15q0 13 14.5 15t76.5 14zM241 556q0 -60 -7 -78v-210q0 -15 -15 -15t-15 15v213q0 6 3.5 17.5t3.5 17.5q0 -6 0 40q0 15 15 15t15 -15zM247 156q-12 -128 -57 -210q54 44 88 102
q37 62 39 121q1 14 15 14q16 0 15 -16q-3 -84 -66 -169q-58 -78 -137 -117q-5 -3 -10 -3q-13 0 -13 13q0 6 4 12q78 100 92 255q1 14 15 14q16 0 15 -16zM315 289q-1 -14 -15 -14q-15 0 -15 16q0 141 -17 229q-3 14 -3 26q0 64 18 142q3 12 15 12q19 0 15 -18
q-18 -76 -18 -136q0 3 7 -45q12 -87 13 -198h21t49.5 12.5t42.5 26.5q5 5 11 5q15 0 15 -15q0 -6 -4 -10q-18 -19 -53 -34t-61 -15q-21 0 -21 16zM313 202q0 15 15 15t15 -15t-15 -15t-15 15zM340 195q0 -15 -2 -37q-1 -14 -15 -14q-16 0 -15 16q2 22 2 36t15 14t15 -15z
M324 215q52 2 83 41q1 2 48 81q5 7 13 7q15 0 15 -15q0 -4 -2 -8q-49 -82 -57 -91q-37 -42 -98 -45q-16 -1 -16 15q0 14 14 15zM33 256q46 -7 66 -7q90 0 114 21q5 4 10 4q15 0 15 -15q0 -7 -5 -11q-32 -29 -134 -29q-22 0 -70 7q-13 2 -13 15q0 17 17 15z" />
    <glyph glyph-name="five" unicode="5" horiz-adv-x="405" 
d="M64 638q-9 -86 -36 -245q6 -10 6 -19q0 -15 -13 -15q-8 0 -13 8q-12 20 -11 26q28 161 37 249q1 13 15 13q17 0 15 -17zM318 563q10 46 21 75q-47 2 -141 2q-9 -1 -23 -7t-23 -6q-31 -1 -102 -7q-16 -2 -16 15q0 14 14 15q30 3 101 7h2q9 1 23.5 -6t23.5 -7
q24 1 80.5 12.5t82.5 12.5q8 -9 15 -21q-17 -36 -31 -100q-19 -87 -24 -103q-15 2 -29 7q10 46 -4 108t-41 63q-14 1 -14 15q0 16 16 15q50 -3 69 -88v-2zM142 621q-29 -89 -36 -116q-17 -69 -13 -120q1 -16 -15 -16q-14 0 -15 13t-1 25q0 66 52 224q3 10 14 10q21 0 14 -20
zM82 394q49 -7 98 -13q59 -11 91 -33q50 -35 50 -127q0 -113 -111 -250q-62 -77 -179 -138q-4 -2 -7 -2q-15 0 -15 15q0 9 8 13q111 59 169 130q105 130 105 232q0 67 -25.5 93t-92.5 37q-33 5 -95 13q-13 2 -13 15q0 17 17 15zM24 333h12q65 0 127 -24q20 -5 41.5 -11
t34.5 -20q20 -21 33 -64q13 -39 13 -73q0 -65 -69 -140q-4 -4 -8 0t0 8q47 51 47 132q0 29 -11.5 64.5t-26.5 52.5q-8 8 -30 14l-34 9q-57 22 -117 22q-10 0 -13 -1h-2q-2 -2 -7 -5q-4 -4 -13.5 2t-9.5 11q3 39 12 66q3 11 14 11q20 0 14 -19q-5 -18 -7 -35z" />
    <glyph glyph-name="six" unicode="6" horiz-adv-x="392" 
d="M188 609q38 -12 52 -19q25 -13 41 -37q74 -109 74 -241t-60 -231q-24 -38 -58 -66q-41 -34 -80 -34q-32 0 -61 33q-20 30 -41 59q-62 86 -62 233q0 270 120 398q69 74 205 105q18 4 18 -15q0 -12 -12 -15q-126 -28 -189 -95q-112 -119 -112 -378q0 -137 56 -215
q17 -25 33 -49q24 -31 45 -31q28 0 61 27q30 24 51 59q56 92 56 215t-68 225q-15 22 -45 33q-27 8 -53 17q-12 5 -12 12q0 6 5.5 12.5t27.5 6.5q10 0 10 -4q0 -3 -2 -5zM289 770q-59 -32 -94 -81q-29 -40 -57 -115q-24 -64 -48 -127q-25 -75 -25 -133q0 -55 20 -119t49 -110
q9 -15 29 -34q24 -22 36 -22q10 0 17 23q5 16 19 48q2 4 6 2t2 -6q-2 -20 -8 -50q-14 -47 -36 -47t-51 26q-25 21 -40 44q-31 49 -52 117.5t-21 127.5q0 61 25 138l50 132q30 80 61 123q39 54 104 89q4 2 7 2q15 0 15 -15q0 -9 -8 -13zM178 610q2 -14 9 -36q96 -155 96 -355
q0 -86 -8 -120q-17 -75 -74 -75q-15 0 -15 15t15 15q38 0 48 68q4 24 4 97q0 201 -88 341q-8 14 -15 42q-6 19 14 19q12 0 14 -11z" />
    <glyph glyph-name="seven" unicode="7" horiz-adv-x="444" 
d="M35 475q29 95 31 101q25 63 56 83q4 3 8 3q15 0 15 -15q0 -8 -7 -12q-29 -20 -60 -118q-21 -69 -43 -138q-16 -38 -29 -38q-9 0 -9 30q0 38 9 114.5t9 115.5q0 21 -2 40q-1 16 15 16q14 0 15 -14q5 -49 -5 -137zM11 -78q24 33 68 101q35 64 77 179q50 135 71 181
q27 68 55 135q33 77 78 121q-13 -1 -338 -19q-16 -1 -16 15q0 14 14 15q340 19 383 19q13 0 13 -18q0 -6 -4 -9q-60 -42 -98 -124q-30 -74 -59 -147q-22 -47 -72 -183q-43 -115 -78 -179q-18 -33 -90 -133q-2 -3 -7 -3q-8 0 -14.5 5t-4.5 11q2 11 15 28q2 5 7 5zM285 643
q-44 -104 -82.5 -216.5t-76.5 -222.5q-3 -9 -84 -234q-13 -40 -27 -80q-24 -59 -47 -59q-6 0 -10.5 4.5t-2.5 13.5q1 4 11 13t15 9q2 0 2 -3q0 -2 -0.5 -7t-2.5 -15v-3q-7 -1 -10.5 4t-1.5 12q-3 -3 -10 -2q22 21 35 58q11 32 21 65l84 234q38 111 77 223.5t82 217.5
q4 9 14 9q15 0 15 -14q0 -4 -1 -7z" />
    <glyph glyph-name="eight" unicode="8" horiz-adv-x="352" 
d="M122 636q-48 -2 -66 -41q-11 -25 -11 -80q0 -86 67 -159l126 -114q67 -66 67 -133q0 -97 -86 -142q-4 -2 -7 -2q-15 0 -15 15q0 9 8 13q70 37 70 116q0 57 -67 120q-63 58 -126 115q-67 78 -67 171q0 146 105 151q16 1 16 -15q0 -14 -14 -15zM133 654q-36 -18 -45 -39
q-7 -15 -7 -57q0 -30 16.5 -54t32.5 -48q20 -35 62 -95q7 -10 23.5 -22t21.5 -18q76 -86 76 -169q0 -36 -21 -68.5t-54 -44.5q-11 -4 -11 7q0 5 5 7q51 18 51 99q0 36 -24 85t-52 71q-15 10 -39 35q-21 30 -64 99q-18 26 -35.5 52.5t-17.5 63.5q0 51 11 73q14 28 57 49
q4 2 7 2q15 0 15 -15q0 -9 -8 -13zM160 436q20 18 37.5 49.5t17.5 52.5q0 39 -17 72q-19 37 -48 37q-9 0 -22 -2t-19 -2q-16 -1 -16 15q0 14 14 15q6 0 22 2q12 2 21 2q48 0 75 -53q20 -41 20 -86q0 -35 -34 -87q-36 -56 -67 -56q-18 0 -9 26q7 20 18 20q4 0 7 -5zM137 687
q76 -10 109 -29q55 -31 55 -102q0 -55 -43 -99q-44 -34 -87 -69q-4 -3 -9 -3q-15 0 -15 15q0 7 6 12q38 30 77 60q41 39 41 84q0 53 -39 76q-28 16 -99 25q-13 2 -13 15q0 17 17 15zM99 323q-72 -98 -72 -185q0 -53 50.5 -109t99.5 -56q11 0 16 13q4 9 14 9q15 0 15 -14
q0 -16 -14.5 -27t-30.5 -11q-63 0 -122 67q-58 64 -58 128q0 97 78 203q5 6 12 6q15 0 15 -15q0 -5 -3 -9zM112 324q-39 -59 -39 -128q0 -58 36 -108q39 -55 90 -55q31 0 47 41q3 7 9 7q14 0 9 -13q-25 -65 -65 -65q-67 0 -114 67q-42 60 -42 126q0 78 43 144q5 7 13 7
q15 0 15 -15q0 -4 -2 -8z" />
    <glyph glyph-name="nine" unicode="9" horiz-adv-x="388" 
d="M191 641q-105 -61 -149 -168q-37 -90 -37 -235q0 -74 32 -142q37 -79 92 -79q33 0 65 34q5 5 11 5q15 0 15 -15q0 -17 -36.5 -35.5t-54.5 -18.5q-75 0 -119 96q-35 76 -35 155q0 151 40 247q47 115 160 182q4 2 8 2q15 0 15 -15q0 -8 -7 -13zM89 530q-50 -60 -50 -151
q0 -71 26 -156.5t66 -148.5q6 -9 33 -30q24 -19 24 -23q0 -16 -16 -15q-32 2 -62 45q-14 20 -39 73q-62 132 -62 255q0 102 58 171q4 5 11 5q15 0 15 -15q0 -5 -4 -10zM60 553q21 13 43.5 25.5t45.5 12.5q39 0 68 -46q27 -40 26 -77q-1 -41 5 -121q5 -84 5 -120
q0 -135 -37 -258q-40 -136 -120 -230q-14 -17 -28 -35q-23 -25 -36 -24q-23 2 -16 35q3 15 11 15q6 0 12 -9.5t6 -17.5v-2q-10 1 -11 9h-3q5 4 43 49q75 89 114 221q35 117 35 247q0 36 -5 121q-6 80 -5 120q0 29 -21 61t-43 32q-20 0 -48 -18t-34 -18q-15 0 -15 16
q0 8 8 12zM204 672q90 -39 123 -157q22 -76 22 -211q0 -36 -13 -83q-12 -40 -23 -80q-46 -174 -71 -233q-54 -132 -143 -189q-20 -12 -58 -40q-5 -4 -10 -4q-15 0 -15 15q0 7 5 11q12 11 58 40q37 24 53 44q64 79 98 173q12 33 53 191l24 76q12 43 12 79q0 131 -21 203
q-29 104 -106 137q-9 4 -9 13q0 16 14 16q4 0 7 -1z" />
    <glyph glyph-name="colon" unicode=":" horiz-adv-x="194" 
d="M93 646q-70 -33 -70 -104q0 -19 10 -31q28 0 58 37t30 66q0 18 -2 21l-23 -3q-17 -2 -17 15q0 13 14 15t23 2q35 0 35 -50q0 -39 -37 -85q-40 -48 -82 -48q-18 0 -29 23q-10 19 -10 38q0 91 88 132q3 1 6 1q15 0 15 -15q0 -9 -9 -14zM74 148q-63 -33 -63 -113
q0 -26 16 -26q30 0 47 41q13 32 13 67q0 12 -4 16q-1 0 -15 4t-14 13q0 15 23 15q40 0 40 -48q0 -49 -20 -89q-25 -49 -70 -49q-46 0 -46 56q0 98 79 139q4 2 7 2q15 0 15 -15q0 -9 -8 -13z" />
    <glyph glyph-name="semicolon" unicode=";" horiz-adv-x="204" 
d="M103 642q-40 -13 -66 -46.5t-26 -76.5q0 -42 15 -42q38 0 69 49q28 44 28 83q0 22 -14 27t-14 15q0 17 17 15q41 -5 41 -58t-37 -105q-40 -56 -90 -56q-45 0 -45 72q0 53 32.5 94.5t81.5 56.5q19 6 19 -14q0 -11 -11 -14zM30 -80q21 25 39 63q22 46 22 79q0 28 -16 43
q-5 5 -5 11q0 15 15 15q6 0 10 -4q26 -25 26 -65q0 -28 -13 -62q-37 -99 -115 -152q-5 -4 -11 -4q-13 0 -13 13q0 5 3 10q43 87 43 131q0 60 -26 70q-12 4 -12 13q0 8 9 14q31 22 94 61q4 2 7 2q15 0 15 -15q0 -9 -6.5 -12.5t-74.5 -48.5q24 -25 24 -84q0 -38 -15 -78z" />
    <glyph glyph-name="less" unicode="&#x3c;" horiz-adv-x="382" 
d="M316 610q-44 -25 -79 -56q-120 -108 -212 -205q125 -118 186 -306q11 -35 28 -61q3 -4 3 -8q0 -15 -15 -15q-8 0 -12 7q-16 24 -31 65q-18 53 -25 67q-74 159 -165 239q-12 10 -1 21q95 103 224 218q37 34 85 60q4 2 7 2q15 0 15 -15q0 -9 -8 -13zM102 427q14 -24 42 -78
q18 -36 70 -165q41 -102 78 -160q2 -4 2 -8q0 -15 -15 -15q-8 0 -13 7q-37 59 -78 162q-53 130 -70 165q-13 24 -42 78q-2 4 -2 7q0 15 15 15q9 0 13 -8zM234 -7l55 33q4 2 8 2q15 0 15 -15q0 -8 -7 -13l-55 -33q-4 -2 -8 -2q-15 0 -15 15q0 8 7 13z" />
    <glyph glyph-name="equal" unicode="=" horiz-adv-x="395" 
d="M314 350q-11 4 -42 4q-17 0 -39 -1.5t-19 -1.5q-93 0 -187 6q-14 1 -14 15q0 16 16 15q92 -6 185 -6q-3 0 19 1.5t39 1.5q71 0 71 -28q0 -15 -15 -15q-10 0 -14 9zM17 242q40 -1 132 -12q85 -10 132 -10q21 0 41 2q16 1 16 -15q0 -14 -14 -15q-20 -2 -42 -2
q-47 0 -133 10q-92 11 -132 12q-15 0 -15 15t15 15z" />
    <glyph glyph-name="greater" unicode="&#x3e;" 
d="M32 26l-3 -3q-5 -8 -13 -8q-15 0 -15 15q0 3 1 6q26 68 99 138q3 2 133 110q-16 13 -33 38q-28 40 -28 41q-72 92 -161 246q-2 4 -2 8q0 15 15 15q9 0 13 -7q88 -153 159 -244q15 -22 31 -45q19 -26 37 -37.5t3 -24.5q-68 -56 -135 -112q-78 -71 -103 -136q0 1 1 4
q-9 -7 -15 -7q-10 0 -9 19l-2 -2l3 5q11 16 22 16q10 0 10 -21q0 -10 -8 -14zM22 637q10 -4 10 -12q0 -4 -3 -9q4 1 8 -1l-1 -1l-4 -1q-7 -4 -7 13q-11 4 -11 9q0 8 52 34t67 26q16 0 16 -15q0 -31 16 -68q14 -31 28 -63q39 -111 44 -122q27 -68 60 -115q4 -5 4 -10
q0 -8 -15 -15q-11 -4 -22 -9q-31 -17 -34 -17q-15 0 -15 15q0 9 8 13q13 8 39 22q-30 45 -56 111q-4 11 -41 117q-2 6 -26 60q-16 35 -19 62q-31 -10 -86 -47q-11 5 -11 9q0 2 2 3q-1 16 -4 14h-2l4 1q5 3 11 3q17 0 17 -12q0 -18 -17 -18q-15 0 -15 15q0 4 3 8z" />
    <glyph glyph-name="question" unicode="?" horiz-adv-x="438" 
d="M147 126q-66 -61 -66 -114q0 -3 23.5 -21t33.5 -18q24 0 40 45q13 35 13 65q0 21 -16 28q-5 2 -34 5q-13 2 -13 15q0 17 17 15q38 -4 53 -13q23 -14 23 -50q0 -45 -19 -87q-24 -53 -64 -53q-19 0 -53 25t-34 44q0 67 76 136q4 4 10 4q15 0 15 -15q0 -6 -5 -11zM50 679
q-14 -28 -28 -55q-13 -30 -13 -61q0 -44 28 -44q21 0 35 62q11 46 11 75q0 19 -23 19q-9 0 -19.5 -3.5t-12.5 -3.5q-15 0 -15 15q0 22 46 22q54 0 54 -49t-15 -98q-22 -69 -61 -69q-30 0 -46 27q-12 20 -12 47q0 35 14 68q1 5 31 62q4 8 13 8q15 0 15 -15q0 -3 -2 -7z
M212 242q-1 6 -8 31l-2 7q-6 17 -11 73q-6 53 -6 74q0 42 48 72l88 56q48 41 48 110q0 130 -131 130q-126 0 -206 -135q-5 -7 -13 -7q-15 0 -15 15q0 4 2 8q89 149 232 149q161 0 161 -160q0 -69 -43 -117q-32 -35 -103 -72q-38 -19 -38 -49q0 -19 5 -70q6 -54 10 -69l2 -6
q10 -33 10 -45q0 -15 -11.5 -20t-48.5 -12l-7 -1q-16 -6 -61 -35q-23 -15 -28 45q-1 7 -1 75q0 95 10 131q14 51 69 109q50 53 64 74q29 44 29 92q0 25 -24 45.5t-52 20.5q-43 0 -84 -38q-3 -2 -64 -71q-4 -5 -11 -5q-15 0 -15 15q0 5 4 10q62 71 72 79q46 40 98 40
q39 0 72.5 -28t33.5 -68q0 -51 -25 -94q-16 -29 -57 -72q-45 -48 -62 -72q-28 -40 -28 -168q0 -39 3 -81q33 22 52 25l7 2q12 2 35 7z" />
    <glyph glyph-name="at" unicode="@" horiz-adv-x="622" 
d="M282 561q-48 -51 -66.5 -99t-18.5 -118q0 -24 10 -54q13 -39 32 -39q37 0 103 112q5 7 13 7q15 0 15 -15q0 -4 -2 -8q-35 -58 -53 -80q-38 -46 -76 -46q-35 0 -56 47q-16 37 -16 76q0 76 20.5 129t72.5 108q5 5 11 5q15 0 15 -15q0 -6 -4 -10zM280 560q-7 -37 -13 -74
q-8 -43 -8 -74q0 -87 38 -135q3 -4 3 -9q0 -15 -15 -15q-7 0 -12 6q-44 56 -44 153q0 32 8 77q6 37 13 75q2 13 15 13q18 0 15 -17zM259 579q63 26 132 44q19 6 19 -14q0 -11 -11 -14q-67 -19 -128 -44q-3 -1 -7 -1q-14 0 -14 15q0 10 9 14zM424 279q36 0 70 53q29 46 36 91
t7 87q0 187 -79 245q-49 36 -132 36q-34 0 -106 -21q-53 -16 -87 -52q-29 -30 -56 -90q-50 -108 -50 -252q0 -200 106 -286q50 -40 67 -52q44 -29 76 -29q33 0 88 24t79 47q33 31 90 121q2 2 5 1q2 -2 1 -5q-10 -15 -33 -71q-19 -45 -43 -68q-28 -26 -86 -52
q-61 -27 -101 -27q-39 0 -87 30q-21 14 -74 57q-118 96 -118 310q0 151 52 264q30 65 62 99q40 41 101 59q76 23 114 23q92 0 150 -42q91 -66 91 -269q0 -44 -7 -91q-8 -51 -41 -104q-43 -66 -95 -66q-26 0 -55 54q-17 33 -28 64q-24 69 -24 216q0 15 15 15t15 -15
q0 -142 22 -206q8 -21 23 -52q21 -42 32 -46zM407 614q-18 -74 -18 -108q0 -42 20 -93q22 -55 53 -81q14 -12 23 -6q4 3 8 3q15 0 15 -15q0 -20 -30 -20q-29 0 -72 58q-18 25 -32.5 73t-14.5 81q0 37 18 114q3 12 15 12q19 0 15 -18zM194 775q66 24 92 24q68 0 126 -55
q25 -23 87 -109q66 -90 66 -150q0 -30 -16 -55q-5 -7 -13 -7q-15 0 -15 15q0 4 2 8q12 18 12 40q0 39 -36 96q-29 41 -58 81q-75 106 -155 106q-22 0 -52.5 -11.5t-35.5 -11.5q-14 0 -14 15q0 10 10 14zM64 567q-29 -108 -29 -155q0 -41 22 -81q22 -36 45 -72
q113 -186 258 -186q125 0 163 67q1 2 3 1t1 -3q-24 -43 -69 -69t-98 -26q-162 0 -284 200q-24 40 -48 79q-23 44 -23 90q0 51 29 163q3 11 15 11q19 0 15 -19z" />
    <glyph glyph-name="A" unicode="A" horiz-adv-x="418" 
d="M176 793q-4 -73 -21 -178q-24 -148 -27 -174q-17 -112 -41 -346q-4 -57 -13 -107q-3 -12 -15 -12q-18 0 -15 18q10 48 13 103q5 75 18 175q11 86 23 173q3 26 27 173q18 104 21 177q1 14 15 14q16 0 15 -16zM-63 -25q99 53 304 53q15 0 15 -15t-15 -15q-197 0 -290 -49
q-4 -2 -7 -2q-15 0 -15 15q0 9 8 13zM198 811q1 -38 26 -187q13 -98 48 -289q14 -81 48 -242q15 -58 15 -99q0 -15 -15 -15t-15 15q0 37 -14 93q-18 72 -21 93q-10 77 -28 149q-13 55 -26 142q-11 74 -22 149q-8 45 -16 91q-8 51 -10 98q-1 16 15 16q14 0 15 -14zM173 626
q8 -86 33 -234q23 -138 31 -234q2 -30 20 -102q15 -65 15 -103q0 -15 -15 -15t-15 15q0 38 -15 102q-18 71 -20 101q-8 96 -31 234q-24 147 -33 234q-2 16 15 16q14 0 15 -14zM145 -59q52 23 156 46q54 12 109 25q64 14 110 16q16 1 16 -15q0 -14 -14 -15q-46 -2 -108 -16
q-54 -12 -107 -25q-100 -22 -150 -44q-3 -1 -7 -1q-14 0 -14 16q0 9 9 13zM1 288q22 6 97 16t107 19q19 6 19 -14q0 -11 -11 -14q-32 -9 -107 -19.5t-97 -15.5q-19 -6 -19 14q0 11 11 14z" />
    <glyph glyph-name="B" unicode="B" horiz-adv-x="448" 
d="M63 695q-10 3 -10 14v15q1 12 1 17q0 13 11 13q9 0 11 -10q79 -326 79 -741q0 -15 -15 -15t-15 15q0 327 -43 565q-6 42 -19 127zM172 769q-3 -80 -3 -68q0 -23 3 -53l3 -54q3 -124 17 -408q2 -27 15 -165q1 -16 -15 -16q-14 0 -15 14q-5 53 -14 164.5t-18 410.5
q-1 18 -3 53q-3 31 -3 54q0 -12 3 70q1 14 15 14q16 0 15 -16zM-8 700q75 67 112 90q68 43 134 43q41 0 57 -7q26 -11 29 -48q-1 -12 1 -38q1 -11 12 -56q8 -34 8 -57q0 -164 -153 -281q-5 -4 -10 -4q-15 0 -15 16q0 7 7 12q72 55 134 55q53 0 80 -57q21 -43 21 -102
q0 -173 -242 -314q-44 -25 -79 -25q-21 0 -72 22q-9 4 -9 13q0 16 14 16q6 0 30 -10.5t37 -10.5q28 0 67 23q31 20 62 39q63 36 111 105q51 74 51 142q0 45 -14 80q-18 49 -57 49q-52 0 -116 -49l-18 24q141 107 141 257q0 22 -8 55q-10 43 -12 54q-2 28 -5 56q-5 11 -52 11
q-59 0 -123 -42q-32 -20 -103 -83q-5 -4 -10 -4q-15 0 -15 15q0 7 5 11zM229 799q38 -88 38 -163q0 -38 -13 -94q-19 -76 -21 -91q-2 -18 -3 -35q-3 -20 -11 -34q-4 -8 -13 -8q-15 0 -15 15q0 4 2 7q6 11 8 29q1 15 3 30.5t20 89.5q13 54 13 91q0 69 -36 151q-1 3 -1 7
q0 14 15 14q10 0 14 -9zM233 406q50 -13 62 -24q20 -18 28 -71q4 -30 4 -84q0 -60 -14 -121q-21 -89 -62 -89q-14 0 -14 15q0 10 10 14q27 11 40 80q10 49 10 101q0 123 -29 138q-4 2 -43 13q-11 3 -11 14q0 20 19 14z" />
    <glyph glyph-name="C" unicode="C" 
d="M225 732q-29 25 -48 25q-40 0 -76 -69q-31 -58 -37 -108q-11 -58 -31 -174q-12 -81 -12 -146q0 -68 39 -149q45 -94 105 -94q8 7 25 19q56 35 73 134q2 12 15 12q18 0 15 -18q-21 -119 -114 -172q-8 -5 -14 -5q-75 0 -128 103q-46 88 -46 170q0 99 39 294q2 22 12 65
q26 75 45 107q38 61 90 61q30 0 68 -31q5 -5 5 -12q0 -15 -15 -15q-5 0 -10 3zM115 709q-48 -207 -48 -328q0 -12 2 -43t2 -44q0 -147 86 -234q16 -16 31.5 -16t15.5 -15t-15 -15q-28 1 -52 24q-10 10 -35 45q-61 85 -61 211q0 13 -2 44t-2 43q0 125 48 334q3 12 15 12
q19 0 15 -18zM262 767q-3 -102 -3 -87q0 2 6 -76q1 -16 -15 -16q-14 0 -15 14l-6 78q0 -15 3 87q0 15 15 15t15 -15z" />
    <glyph glyph-name="D" unicode="D" horiz-adv-x="362" 
d="M57 765q4 -53 9 -148q1 -48 8 -148q29 -234 29 -443q0 -15 -15 -15t-15 15q0 207 -29 439q-6 49 -8 152q-1 40 -9 146q-1 16 15 16q14 0 15 -14zM146 38q15 9 15 0v-3v-3q0 -29 -11 -29q-9 0 -18 24q-13 35 -14 90q-1 88 -2 93q-17 179 -17 372q0 31 1.5 94.5t1.5 96.5
q0 15 15 15t15 -15q0 -33 -1.5 -96.5t-1.5 -94.5q0 -86 8 -231q10 -168 11 -231q2 -55 12 -83q-5 -26 -13 -26q-7 0 -16 24v-2v2v2q7 5 11 5t4 -4zM-28 763q111 58 180 58q96 0 143 -91q36 -69 36 -170q0 -77 -18 -177q-19 -88 -37 -175q-23 -108 -89 -182q-74 -82 -178 -93
q-17 -2 -17 15q0 13 13 15q138 15 206 158q37 75 72 263q18 98 18 176q0 95 -32 156q-40 75 -117 75q-61 0 -166 -54q-4 -2 -7 -2q-15 0 -15 15q0 9 8 13zM199 794q86 -149 86 -400q0 -182 -46 -223q-5 -4 -10 -4q-15 0 -15 15q0 6 5 11q36 33 36 201q0 243 -82 386
q-2 3 -2 7q0 15 15 15q9 0 13 -8z" />
    <glyph glyph-name="E" unicode="E" horiz-adv-x="379" 
d="M45 772q1 -50 6 -157q6 -53 15 -150q4 -155 23 -464q1 -16 -15 -16q-14 0 -15 14q-8 85 -13 232q-6 170 -10 232q-6 54 -15 150q0 50 -6 155q-2 17 15 17q13 0 15 -13zM123 786q-8 -123 -8 -227q0 -103 17 -382q2 -59 11 -182q1 -16 -15 -16q-14 0 -15 14q-3 58 -11 182
q-17 280 -17 384q0 105 8 229q1 14 15 14q16 0 15 -16zM271 719q6 42 16 80q-30 -9 -79 -12q-64 -4 -80 -6q-41 -6 -154 -37q-19 -6 -19 14q0 11 11 14q49 15 158 39q46 3 92 7q58 4 87 20q5 3 10 3q12 0 12 -13q0 -4 -1 -7q-28 -92 -36 -237q-1 -16 -15 -16q-12 0 -15 14
q-7 59 -15 118q-16 91 -46 92q-14 1 -14 12q0 19 21 19q19 0 37 -28l3 -4q16 -24 27 -72zM281 105q-4 -34 -41 -136q-4 -10 -14 -10q-15 0 -15 14q0 7 18 56.5t20 64.5q4 37 8.5 74.5t22.5 67.5q6 9 14 9q13 0 14 -16q1 -60 3 -121q3 -73 21 -116q1 -4 1 -7q0 -17 -47 -17
q-18 0 -46 2.5t-30 2.5q-32 0 -103 -7t-103 -7q-17 0 -17 14q0 10 11 15l29 12q3 1 7 1q14 0 14 -15q0 -10 -9 -14l-29 -12l-6 29q32 0 103 7t103 7q12 0 44 -3q27 -3 44 -2q-14 42 -17 107zM204 435q3 21 0 55q-4 45 -4 55l30 -2q-3 -28 -3 -62t4.5 -102t4.5 -102
q0 -15 -15 -15t-15 15q0 34 -4.5 102.5t-4.5 102.5q0 35 3 65q2 14 15 14q15 0 15 -16q0 -7 3 -37t3 -47q0 -39 -14.5 -50t-53.5 -18l-56 -10q-19 -4 -19 15q0 12 11 15q41 5 100 22z" />
    <glyph glyph-name="F" unicode="F" horiz-adv-x="398" 
d="M54 769q6 -47 17 -148q7 -94 12 -210q6 -160 9 -211q1 -16 7 -94q4 -51 4 -94q0 -15 -15 -15t-15 15q0 43 -4 93q-6 77 -7 93q-4 129 -21 421q-1 7 -17 146q-2 17 15 17q13 0 15 -13zM132 15q-5 6 -5 11q0 14 17 14q18 0 18 -23q0 -17 -5 -17t-11 8l-7 -13q-9 4 -8 15
q3 42 -5 119q-8 83 -7 119q2 119 0 158q-4 74 -5 187q-1 132 -3 185q-1 16 15 16q14 0 15 -14q0 -119 8 -372q2 -40 0 -160q-1 -37 7 -120q8 -78 5 -120q-8 4 -8 13l-7 -13q-1 -3 -3 -3q-5 0 -11 8v2zM302 569q7 10 7 100q0 81 23 133q-42 -1 -126 -12q-74 -19 -236 -55
q-18 -3 -18 15q0 12 13 14.5t156 37.5q94 22 158 26q27 2 77 9q19 4 19 -12q0 -5 -3 -11q-33 -55 -33 -145q0 -75 1 -68q-4 -49 -24 -59q0 -1 1 -2q0 -35 -8 -35t-20 29q0 67 -8 126q-14 104 -47 112q-11 3 -11 15q0 19 19 15q77 -19 77 -268q0 -38 -11 -38q-7 0 -14.5 16.5
t-7.5 32.5q0 23 16 24zM-13 -15q14 21 52 31q31 5 63 11q56 18 176 49q18 3 18 -15q0 -12 -12 -15q-35 -6 -88 -23q-61 -19 -87.5 -24.5t-51.5 -9.5q-37 -8 -46 -20q-4 -7 -12 -7q-15 0 -15 15q0 4 3 8zM212 508q-1 3 -1 6v8q0 16 15 16t15 -16l-1 -25q-1 -17 1 -26
q2 -14 11 -22q6 -7 6 -13q0 -12 -16 -13q-22 -2 -45 -12.5t-45 -20.5q-3 -1 -7 -1q-14 0 -14 16q0 9 9 13q24 12 76 31q-5 11 -6 24q-1 9 0 25q1 20 1 24v40q0 16 15 16t15 -16q0 -48 6 -148.5t6 -150.5q0 -15 -15 -15t-15 15q0 47 -4 122q-6 101 -7 123z" />
    <glyph glyph-name="G" unicode="G" horiz-adv-x="411" 
d="M200 775q-24 0 -52 -46q-21 -35 -32 -68q-57 -181 -57 -294q0 -18 2 -45t2 -42q0 -120 28 -194q12 -31 39 -58t52 -27q16 0 34 30q34 57 44 81q17 45 13 95q-2 13 11 13q11 0 11 -11q2 -15 2 -29q0 -73 -55 -165q-27 -44 -60 -44q-38 0 -75 37q-30 30 -44 68
q-30 78 -30 204q0 15 -2 42t-2 45q0 82 26 194q29 124 70 187q36 57 75 57q15 0 28 -8q22 -12 24 -13q10 -4 10 -14q0 -15 -14 -15q-7 0 -23 10t-25 10zM94 612q-9 -83 -9 -158q0 -100 25 -202q33 -131 91 -179q6 -5 6 -12q0 -15 -15 -15q-5 0 -9 3q-65 53 -100 190
q-28 107 -28 215q0 77 9 162q2 13 15 13q17 0 15 -17zM262 697q3 70 -7 116q-3 18 15 18q12 0 15 -12q7 -37 7 -90q0 -105 -23 -177q-4 -13 -14 -13q-11 0 -15 16.5t-4 42.5q0 8 1 22v22q0 60 -30 91l-24 24q-3 5 -3 10q0 15 15 15q7 0 12 -5q16 -18 32.5 -36.5t22.5 -43.5z
M162 346q60 13 176 41q20 4 20 -12q0 -5 -2 -9q-19 -40 -19 -229q0 -59 30 -155q6 -20 -14 -20q-11 0 -14 10q-32 101 -32 165q0 161 12 214q-51 -10 -149 -33q-19 -6 -19 14q0 11 11 14zM267 345q7 -41 7 -99q0 -20 -1 -59.5t-1 -59.5q0 -68 10 -115q29 16 62 18
q16 1 16 -15q0 -14 -14 -15q-32 -2 -66 -24q-4 -4 -8 -4q-33 0 -29 193q2 131 -6 176q-3 17 15 17q13 0 15 -13z" />
    <glyph glyph-name="H" unicode="H" horiz-adv-x="497" 
d="M57 795q0 -7 -2 -21t-2 -24q0 -26 7 -63q7 -41 8 -63q15 -318 15 -471q0 -17 3 -77q2 -48 0 -80q-1 -14 -15 -14q-16 0 -15 16q2 31 0 79q-3 59 -3 76q0 152 -15 469q-1 23 -8 64q-7 37 -7 64q0 10 2 23q2 17 2 24q1 14 15 14q16 0 15 -16zM138 792q-1 -7 -4 -24.5
t-3 -27.5q0 -58 12 -164t12 -166q0 -22 1 -115q1 -70 0 -115q-1 -63 -6 -114q-4 -34 -1 -58q2 -17 -15 -17q-13 0 -15 13q-3 25 1 62q5 53 5 61v283q0 60 -12 166t-12 164q0 11 3 27q3 21 4 27q1 14 15 14q16 0 15 -16zM295 12q0 -4 1 -7q-2 1 -15 -3q-1 -8 -15 1
q0 25 -3 79q-4 49 -3 83q7 336 -5 515q-1 15 -12 111q-2 17 15 17q13 0 15 -13q15 -131 17 -235q4 -191 0 -395q-1 -34 3 -83q3 -54 3 -79q0 -11 -15 -1q-7 -2 -10 -2q-7 0 -6 18q1 16 14 16q8 0 14 -6.5t2 -15.5zM348 808q6 -143 6 -427q0 -24 -1.5 -75.5t-1.5 -77.5
q0 -163 9 -229q2 -17 -15 -17q-13 0 -15 13q-9 69 -9 233q0 26 1.5 77.5t1.5 75.5q0 283 -6 425q-1 16 15 16q14 0 15 -14zM-41 772q52 20 104 39q78 29 104 32q10 1 31 8q4 3 8 3q15 0 15 -15q0 -8 -7 -12q-13 -9 -28 -11q-22 -3 -27 -5q-112 -38 -190 -67q-3 -1 -6 -1
q-14 0 -14 15q0 10 10 14zM198 801q46 17 127 35q92 21 128 32q19 6 19 -14q0 -11 -11 -14q-35 -11 -127 -32q-80 -19 -126 -35q-3 -1 -6 -1q-14 0 -14 15q0 11 10 14zM148 435q70 28 125 36q17 2 17 -15q0 -13 -13 -15q-51 -7 -117 -34q-4 -1 -7 -1q-14 0 -14 15q0 10 9 14
zM10 -20q28 12 102 35q69 21 103 37q3 1 6 1q15 0 15 -16q0 -9 -9 -13q-33 -15 -103 -37q-74 -23 -102 -35q-3 -1 -7 -1q-14 0 -14 16q0 9 9 13zM194 -17q0 1 121 44q72 26 125 26q15 0 15 -15t-15 -15q-49 0 -121 -26q-115 -42 -117 -42q-19 -6 -19 14q0 11 11 14z" />
    <glyph glyph-name="I" unicode="I" horiz-adv-x="323" 
d="M68 774q-3 -20 -3 -45q0 -33 7 -86q11 -81 11 -84q10 -95 14 -238q8 -228 8 -238q2 -39 10 -71q-7 -7 -11 -7q-3 0 -4 2q-14 0 -15 -1v5q-4 32 13 32q13 0 17 -29v-5q0 -2 -15 -2q-6 -8 -10 -8q-3 0 -4 3q-7 21 -10 73q-2 39 -3 77q-2 34 -7 202q-3 109 -13 201
q-1 7 -11 86q-8 53 -8 87q0 27 4 50q2 13 15 13q18 0 15 -17zM148 777q-7 -26 -7 -95q0 -33 3 -76q4 -55 5 -71q1 -37 2 -88v-81q0 -85 4 -140q0 -1 9 -74q8 -60 8 -94q0 -56 -21 -56q-14 0 -15 14q-6 54 16 54q15 0 15 -15q0 -4 -1 -16.5t-1 -19.5q0 2 -2 6q-6 -9 -12 -9
t-12 9q-1 -1 -2 -1q5 18 5 43q0 30 -7 81q-9 63 -10 76q-4 54 -4 147v69q0 54 -2 93q-1 17 -5 72q-3 44 -3 77q0 74 9 103q3 11 14 11q20 0 14 -19zM-21 764l78 32q45 18 80 24q30 4 61.5 9.5t55.5 16.5q4 2 7 2q15 0 15 -16q0 -8 -8 -12q-32 -16 -98 -27q-70 -11 -104 -25
q-82 -33 -83 -33q-14 0 -14 15q0 10 10 14zM18 -12q133 39 232 39q15 0 15 -15t-15 -15q-95 0 -224 -37q-19 -6 -19 14q0 11 11 14z" />
    <glyph glyph-name="J" unicode="J" horiz-adv-x="283" 
d="M-18 779q44 5 253 49q18 3 18 -15q0 -12 -12 -15q-62 -13 -125 -27q-74 -16 -130 -22q-17 -2 -17 15q0 13 13 15zM89 769q20 -172 20 -252q0 -38 -6 -98q-8 -72 -9 -94q-6 -109 -14 -173q-15 -117 -43 -167q-6 -11 -31 -50q-5 -7 -13 -7q-15 0 -15 15q0 4 2 8
q24 36 30 47q15 27 20 51q26 115 34 278q1 21 9 93q6 59 6 97q0 78 -20 248q-2 17 15 17q13 0 15 -13zM161 807q0 -55 7 -163.5t7 -164.5q0 -227 -92 -446q-28 -65 -64 -94q-4 -3 -9 -3q-15 0 -15 15q0 7 6 12q30 24 55 85q18 49 35 98q54 153 54 333q0 56 -7 164.5
t-7 163.5q0 15 15 15t15 -15z" />
    <glyph glyph-name="K" unicode="K" horiz-adv-x="550" 
d="M80 17q1 -1 1 -2q-13 -2 -13 11q0 9 9 11q8 1 13.5 -7t5.5 -17q0 -17 -16 -17t-16 62q0 24 -1 67t-1 65q0 237 -12 366q-8 73 -23 219q-1 16 15 16q14 0 15 -14q8 -73 23 -219q12 -130 12 -368q0 -22 1 -65t1 -67q0 -30 3 -43q-1 1 -2 3q-8 -5 -15 -1zM112 787
q26 -121 26 -262q0 -57 2.5 -181t2.5 -182q0 -18 -1 -46.5t-1 -43.5q0 -9 4 -37q3 -23 1 -38q-2 -12 -15 -12q-18 0 -15 18q3 13 -1 34q-4 27 -4 35q0 15 1 43.5t1 46.5q0 58 -2.5 182t-2.5 181q0 138 -26 256q-4 18 15 18q12 0 15 -12zM-4 746q-12 -9 -35 -30l-18 24
q107 60 271 100q19 4 19 -15q0 -12 -11 -15q-161 -38 -265 -96q-5 -3 -9 -3q-14 0 -14 14q0 7 5 13q10 9 39 32q4 3 9 3q15 0 15 -15q0 -7 -6 -12zM-20 -12q47 20 141 55q10 4 59 14q36 8 56 20q4 2 8 2q15 0 15 -15q0 -8 -7 -13q-22 -13 -60 -21q-51 -12 -61 -15
q-49 -21 -143 -55q-19 -6 -19 14q0 11 11 14zM169 371q50 -24 154 -187q42 -59 126 -186q50 53 66 99q3 10 14 10q21 0 14 -20q-7 -21 -39 -69q-39 -59 -59 -59q-7 0 -12 7q-24 41 -67 102q-49 69 -69 100q-23 37 -62 89q-59 79 -81 88q-15 0 -15 22q0 18 11 52q6 18 13 35
q53 189 146 375q4 8 13 8q15 0 15 -15q0 -3 -2 -7q-84 -169 -159 -418q-5 -16 -7 -26zM476 857l-7 -4q-17 -10 -61 -22q-60 -18 -67 -20q-86 -31 -130 -60q-4 -2 -8 -2q-15 0 -15 15q0 8 7 13q67 43 247 96q2 1 21 11q16 8 25 8q16 0 16 -27q0 -15 -15 -15q-9 0 -13 7z
M214 487q21 -37 49 -97q32 -67 46 -94q30 -54 93 -141q72 -98 97 -138q2 -4 2 -8q0 -15 -15 -15q-8 0 -13 7q-25 40 -97 139q-63 87 -93 142q-28 62 -95 189q-2 4 -2 8q0 15 15 15q8 0 13 -7z" />
    <glyph glyph-name="L" unicode="L" horiz-adv-x="428" 
d="M51 807q6 -47 15 -148q2 -126 14 -413q-1 -27 0 -86q3 -41 3 -145q0 -15 -15 -15t-15 15q0 102 -3 143q1 28 0 86q-6 92 -9 207q-3 150 -5 206q-1 30 -15 146q-2 17 15 17q13 0 15 -13zM125 45q-5 34 -12 104v99q0 86 -11 357q-1 19 -7 66q-6 44 -6 64q0 12 3.5 41
t3.5 31q0 15 15 15t15 -15q0 -2 -3.5 -31t-3.5 -41q0 -20 6 -63q6 -47 7 -65q11 -273 11 -359v-97q6 -46 15 -147q1 -12 -19 -12q-7 0 -9.5 4.5t-4.5 24.5q-3 20 0 24zM-61 764l152 60q88 33 159 33q15 0 15 -15t-15 -15q-67 0 -154 -33q-74 -29 -147 -58q-20 -7 -20 14
q0 11 10 14zM-38 -13q15 9 34.5 14.5t37.5 9.5q113 36 115 37q67 19 118 17q17 0 44.5 5.5t42.5 5.5h14q-7 31 -11 81q-5 69 -7 82q-7 -72 -14 -104q-15 -62 -45 -91q-4 -4 -10 -4q-15 0 -15 15q0 6 5 11q31 30 43 120l16 134q3 14 14 14q9 0 15 -11q20 -43 26 -127
q6 -94 17 -130q7 -20 -14 -20h-36q-12 0 -38 -6t-48 -5q-53 2 -131 -22l-128 -40q-17 -4 -29 -12q-4 -2 -8 -2q-15 0 -15 15q0 8 7 13z" />
    <glyph glyph-name="M" unicode="M" horiz-adv-x="652" 
d="M106 777l-23 -228q-1 -5 -38 -278q-23 -172 -23 -277q0 -15 -15 -15t-15 15q0 107 23 278q38 276 38 281q8 74 23 228q1 13 15 13q17 0 15 -17zM-101 4q40 5 107 24q73 22 106 28q17 3 17 -15q0 -13 -13 -15q-32 -5 -106 -27q-68 -20 -107 -25q-17 -2 -17 15q0 13 13 15z
M115 698q2 -77 15 -177q13 -87 25 -173q9 -85 19 -170q11 -98 27 -166q4 -18 -15 -18q-12 0 -15 12q-15 68 -27 167q-9 86 -20 172t-23 174q-14 100 -16 179q0 15 15 15t15 -15zM-8 722q25 14 103 44q65 25 100 48q5 4 11 4q13 0 13 -13q0 -5 -2 -9q-19 -40 -22 -105
q0 2 0 -109q0 -124 55 -377q12 -56 12 -98q0 -15 -15 -15t-15 15q0 38 -12 93q-10 46 -20 91q-35 200 -35 291q0 122 -1 94q2 54 11 93q-57 -22 -169 -73q-4 -2 -7 -2q-15 0 -15 15q0 9 8 13zM185 36q22 40 68 132q148 339 180 552q2 16 15 39q14 28 17.5 38.5t15.5 10.5
t12 -15q0 -9 -7 -24q-10 -20 -23 -53q-33 -218 -182 -560q-22 -41 -70 -134q-4 -8 -13 -8q-15 0 -15 15q0 3 2 7zM443 674q-1 -100 -6 -286q-1 -35 -11 -137q-9 -90 -9 -141q0 -21 3 -53.5t3 -50.5q0 -15 -15 -15t-15 16.5t-3 49t-3 53.5q0 52 9 141q10 103 11 139
q1 97 6 286q1 14 15 14q16 0 15 -16zM521 801q-3 -125 -11 -364q0 -12 -4 -66q-2 -39 -2 -68q0 -22 -3 -62.5t-3 -64.5q0 -15 3 -49t3 -52q0 -30 -6.5 -49.5t-15.5 -19.5q-8 0 -10 10q0 7 -1 14q-2 6 4 7q-4 -1 -5 3t3 5q13 2 16 -8q2 -1 4 -3q-5 -17 -11 -17t-13 16
q5 17 5 43q0 18 -3 52.5t-3 47.5q0 24 3 64.5t3 62.5q0 29 2 69q4 54 4 67q4 126 11 364q1 14 15 14q16 0 15 -16zM323 12q39 9 281 58q18 3 18 -15q0 -12 -12 -15q-96 -18 -279 -58q-19 -4 -19 15q0 12 11 15zM486 805q62 0 131 19q19 6 19 -14q0 -11 -11 -14
q-73 -21 -139 -21q-15 0 -15 15t15 15z" />
    <glyph glyph-name="N" unicode="N" horiz-adv-x="474" 
d="M97 775q-4 -47 -18 -302q-10 -185 -25 -302q0 -44 -6 -123v-33q0 -15 -15 -15t-15 15v36q1 43 6 124q15 117 25 301q14 254 18 301q1 14 15 14q16 0 15 -16zM-1 -16q-1 -10 -12 -13l-40 -8q-19 -4 -19 13q0 9 10 14q122 57 242 57q15 0 15 -15t-15 -15q-89 0 -181 -33z
M102 651q28 -73 57 -174q34 -119 53 -175q31 -73 81 -223q3 -12 28 -74l4 -9q-9 -2 -12 5q-2 -7 -12 -7q6 18 6 61q0 -6 -6 120q-3 62 -3 157q0 44 5.5 124t5.5 122q0 30 -2 58q-3 40 8 152q1 14 15 14q16 0 15 -16q-10 -111 -8 -148q2 -29 2 -59q0 -42 -5.5 -122.5
t-5.5 -124.5q0 -94 3 -155q6 -129 6 -115q0 -91 -24 -91q-5 1 -16 13l-4 10q-23 57 -49 143q-21 50 -60 155q-19 56 -53 175q-29 101 -57 174q-1 3 -1 6q0 14 15 14q10 0 14 -10zM461 797q-39 -3 -116.5 -18t-117.5 -18q-16 -1 -16 15q0 14 14 15q37 3 129 21q82 16 129 16
q26 0 26 -10q0 -9 -20 -20l-3 -2q-4 -7 -12 -6t-13 7zM-31 729l58 50q37 28 68 32q16 2 17 -14q3 -58 41 -148q43 -100 51 -144q10 -58 47 -136q32 -65 65 -130q16 -33 12 -62q-2 -13 -15 -13q-17 0 -15 17q3 21 -12 51q-12 24 -25 48q-25 54 -50 107q-28 63 -37 112
q-7 46 -47 138q-38 87 -44 140q-21 -7 -50 -31q-22 -20 -44 -39q-5 -4 -10 -4q-15 0 -15 15q0 7 5 11z" />
    <glyph glyph-name="O" unicode="O" horiz-adv-x="352" 
d="M191 757q-14 -28 -22 -28q-16 0 -16 15q0 3 1 6q25 53 38 53q7 0 12 -8q121 -207 121 -463q0 -113 -22 -189.5t-81 -174.5l-3 -5q-11 -18 -31 -18q-39 0 -76 46q-28 34 -47 81q-50 125 -50 268q0 63 29 202q35 166 131 262q5 4 11 4q15 0 15 -15q0 -6 -4 -11
q-65 -64 -100 -160q-23 -65 -44 -185q-8 -49 -8 -97q0 -209 85 -324q31 -41 58 -41q3 0 6 4l2 4q21 33 59 110q40 97 40 239q0 127 -23 220.5t-81 204.5zM68 510q-13 -71 -13 -147q0 -55 21 -118q27 -81 53 -119q35 -52 92 -76q-1 3 -2 5q-4 4 1 7q4 4 7 -1q10 -8 23 -29
q1 -6 -6.5 -12.5t-13.5 -4.5q-76 25 -120 86q-32 44 -62 134q-23 68 -23 128q0 79 13 153q2 12 15 12q18 0 15 -18zM139 700q62 -63 104 -160q77 -181 84 -291q1 -16 -15 -16q-14 0 -15 14q-7 105 -82 281q-39 92 -98 150q-4 5 -4 11q0 15 15 15q6 0 11 -4z" />
    <glyph glyph-name="P" unicode="P" horiz-adv-x="358" 
d="M60 792q-3 -56 -3 -113q0 -104 5 -232q8 -174 9 -233q2 -90 3 -104q2 -62 9 -102q3 -17 -15 -17q-13 0 -15 13q-8 51 -12 210q-1 58 -9 232q-5 129 -5 233q0 57 3 115q1 14 15 14q16 0 15 -16zM128 48q7 -4 7 -13v-46q0 -17 -15 -17q-12 0 -15 14q-9 52 -9 233
q0 83 -4.5 212.5t-4.5 212.5q0 109 9 161q2 12 15 12q18 0 15 -18q-9 -48 -9 -155q0 -83 4.5 -212.5t4.5 -212.5q0 -145 2 -171zM20 -17l-39 -30l-15 20q49 34 136 48q73 10 145 20q18 3 18 -15q0 -12 -12 -15q-71 -8 -141 -17q-88 -12 -132 -41q-4 -3 -8 -3q-12 0 -12 12
q0 6 5 11l35 32q5 4 10 4q15 0 15 -16q0 -6 -5 -10zM-40 760q94 51 109 58q70 33 117 33q76 0 112 -78q27 -56 27 -135q0 -67 -36 -183q-62 -203 -173 -238q-20 -6 -20 14q0 11 10 14q119 38 179 303q10 46 10 90q0 73 -24 123q-29 60 -85 60q-42 0 -109 -32
q-11 -5 -103 -55q-4 -2 -7 -2q-15 0 -15 15q0 9 8 13zM160 820q109 -65 109 -225q0 -48 -17 -132q-15 -77 -33 -129q-31 -89 -71 -89q-14 0 -14 15q0 10 9 14q28 12 48 73q4 12 23 90q25 100 25 158q0 143 -95 199q-7 5 -7 13q0 15 15 15q4 0 8 -2z" />
    <glyph glyph-name="Q" unicode="Q" horiz-adv-x="333" 
d="M127 782q-20 -31 -54 -96q-46 -105 -46 -349q0 -59 1 -92q2 -57 26 -116q26 -62 66 -100q21 -20 39 -20q19 0 46 51q18 34 28 66q32 100 32 207q0 199 -63 326q-12 31 -23 62q-18 44 -35 44q-12 0 -53 -18q-6 -3 -9 3t3 9q8 7 22 19q26 17 37 17q35 0 56 -47
q14 -38 28 -75q67 -133 67 -340q0 -172 -66 -292q-34 -62 -70 -62q-45 0 -97 73q-61 84 -64 193q-1 32 -1 92q0 136 10 211q16 118 64 200q6 11 30 50q5 7 13 7q15 0 15 -15q0 -4 -2 -8zM37 458q-10 -49 -10 -64q0 -49 20.5 -120.5t44.5 -116.5q27 -49 62 -73q27 -18 43 -18
q17 0 25 19q1 2 3 1t1 -3q-11 -30 -38 -30q-20 0 -44 17q-61 41 -78 73q-26 47 -47.5 122.5t-21.5 128.5q0 82 25 82q18 0 15 -18zM89 724q59 -15 67 -20q19 -12 35 -62q7 -19 23 -49q18 -34 24 -48q47 -116 47 -215q0 -39 -10 -65q-4 -9 -14 -9q-15 0 -15 14q0 5 5 26t5 36
q0 56 -23 133q-20 67 -46 114q-11 27 -34 81q-8 20 -29.5 25t-42.5 9q-11 3 -11 15q0 19 19 15zM181 -31q19 -83 63 -149q29 -44 103 -122q59 -63 93 -63q40 0 85 87q4 8 13 8q15 0 15 -15q0 -3 -2 -7q-53 -103 -111 -103q-37 0 -79 37q-32 33 -65 65q-111 112 -145 256
q-4 18 15 18q12 0 15 -12zM207 32q13 -72 44 -127q25 -42 84 -108q34 -38 68 -75q50 -51 80 -51q12 0 40 41q4 6 12 6q13 0 13 -13q0 -10 -9 -23q-27 -41 -56 -41q-40 0 -94 52q-4 3 -76 84q-61 68 -87 113q-35 59 -49 136q-3 18 15 18q13 0 15 -12z" />
    <glyph glyph-name="R" unicode="R" horiz-adv-x="425" 
d="M45 785q5 -82 6.5 -209.5t5.5 -208.5q2 -47 18 -175q14 -110 14 -177q0 -15 -15 -15t-15 15q0 67 -14 177q-15 127 -18 173q-4 81 -5.5 208.5t-6.5 209.5q-1 16 15 16q14 0 15 -14zM123 789q-6 -82 -6 -83q0 -15 3 -34q2 -23 3 -34q1 -118 9 -337q-1 -57 3 -170
q1 -17 10 -64q7 -40 7 -64q0 -15 -15 -15t-15 15q0 26 -8.5 76t-9.5 74q1 49 -2 146q-4 56 -5 167q-2 127 -4 170q-1 12 -3 35q-3 20 -3 35q0 3 6 85q1 14 15 14q16 0 15 -16zM-20 -20q56 18 113 35q65 19 115 25q23 3 40 11q4 2 7 2q15 0 15 -15q0 -9 -8 -13
q-20 -11 -48 -14q-40 -6 -47 -8q-51 -12 -179 -51q-19 -6 -19 14q0 11 11 14zM-49 763q123 64 199 64q90 0 135 -79q36 -62 36 -154q0 -96 -34 -187q-41 -113 -115 -145l-39 -18q-3 -2 -7 -2q-15 0 -15 15q0 9 8 13q26 10 72 38q46 43 74 129q26 78 26 157q0 85 -32 139
q-38 64 -109 64q-68 0 -185 -60q-4 -2 -7 -2q-15 0 -15 15q0 9 8 13zM185 815q70 -112 70 -308q0 -180 -80 -242q-4 -3 -9 -3q-15 0 -15 15q0 7 6 12q68 53 68 218q0 187 -66 292q-2 4 -2 8q0 15 15 15q8 0 13 -7zM142 245q92 -31 167 -111q66 -74 133 -147q13 -13 51 -48
q5 -5 5 -11q0 -15 -15 -15q-5 0 -10 4q-36 31 -100 100q-123 160 -241 200q-10 3 -10 14q0 21 20 14zM222 311q39 -55 120 -173q26 -41 52 -83q31 -50 60 -78q4 -5 4 -11q0 -15 -15 -15q-6 0 -11 4q-29 30 -61 81q-27 43 -53 86q-40 54 -122 173q-2 4 -2 8q0 15 15 15
q8 0 13 -7z" />
    <glyph glyph-name="S" unicode="S" horiz-adv-x="333" 
d="M-287 -37zM280 806q-1 -7 -11 -100q-6 -57 -6 -101v-57q0 -15 -15 -15t-15 15v59q0 43 6 101q11 94 11 100q1 14 15 14q16 0 15 -16zM55 8q28 15 60 9l-1 1q-1 3 -1 5q0 8 8 8q4 0 7 -3q10 -15 10 -23q0 -9 -15 -11q-39 -4 -56 -14q-26 -15 -31 -15q-19 0 -16 18
q12 57 17 162q3 51 0 54l27 6q-5 -23 -5 -52q0 -55 16 -92q21 -46 63 -46q47 0 77 49q26 43 26 100q0 82 -31 148q-15 31 -78 127l-82 110q-51 74 -51 120q0 67 63 124q61 54 127 54q21 0 39 -12t35 -24q6 -5 6 -12q0 -15 -15 -15q-5 0 -9 3q-13 10 -27 20t-29 10
q-55 0 -107.5 -47t-52.5 -101q0 -38 51 -110l76 -104q66 -99 83 -134q32 -70 32 -157q0 -64 -31 -116q-37 -63 -102 -63q-57 0 -86 56q-24 45 -24 112q0 32 6 58q2 8 12 11q10 2 15 -5q9 -12 9 -36q-2 -19 -3 -38q-4 -88 -12 -135zM94 786q-37 -71 -37 -97q0 -43 49 -90
q39 -37 79 -74q59 -75 83 -130q31 -71 31 -159q0 -172 -66 -211q-4 -2 -8 -2q-15 0 -15 15q0 8 7 13q52 31 52 185q0 181 -143 306q-51 44 -66 63q-33 40 -33 84q0 33 41 111q4 8 13 8q15 0 15 -15q0 -3 -2 -7zM177 850q38 -63 50 -90q23 -52 23 -99q0 -17 -3 -34
q-1 -10 -11 -10q-14 0 -11 14q2 13 2 27q0 43 -25 92q-3 5 -51 84q-2 4 -2 8q0 15 15 15q8 0 13 -7z" />
    <glyph glyph-name="T" unicode="T" horiz-adv-x="496" 
d="M34 795q-1 -17 -1 -37q0 -24 2.5 -73.5t2.5 -74.5q0 -67 -14 -112q-3 -12 -14 -12q-18 0 -15 18q10 75 19 150q20 96 74 126q15 8 31 8q24 0 44 -19q4 -5 4 -11q0 -15 -15 -15q-6 0 -11 4q-10 11 -23 11q-29 0 -57 -53q-17 -33 -25 -100q-6 -53 -11 -105l-29 6
q12 43 12 107q0 25 -2.5 75.5t-2.5 73.5q0 19 1 34t15 15q16 0 15 -16zM18 808q96 9 193 9q19 0 66.5 2t73.5 2q66 0 103 -11q18 -5 9 -21q-23 -42 -23 -121v-27v-27q0 -44 -5 -72q-3 -13 -13 -13q-11 0 -19.5 14t-6.5 34q3 32 3 33q-16 187 -110 174q-17 -2 -17 15
q0 13 13 15q9 1 17 1q110 0 127 -203q0 -1 -3 -30q-2 -20 5 -26l-26 -8q6 29 6 70v30q-1 20 -1 30q0 66 18 107q-43 8 -108 6q-122 -4 -109 -4q-95 0 -191 -9q-16 -1 -16 15q0 14 14 15zM187 788q23 -322 23 -433q0 -17 3 -42.5t3 -41.5q0 -172 17 -248q4 -18 -15 -18
q-12 0 -15 12q-17 79 -17 254q0 17 -3 42t-3 42q0 109 -23 431q-1 16 15 16q14 0 15 -14zM285 18h-30q0 52 -6 117q-3 38 0 177q1 54 -9 169q-11 123 -11 326q0 15 15 15t15 -15q0 -202 11 -324q10 -116 9 -171q-3 -138 0 -175q6 -66 6 -119zM127 6q48 14 161 27t162 27
q19 6 19 -14q0 -11 -11 -14q-49 -15 -162 -28t-161 -26q-19 -6 -19 14q0 11 11 14z" />
    <glyph glyph-name="U" unicode="U" horiz-adv-x="483" 
d="M-12 793q6 -1 13 -1q11 0 29 6q22 8 29 10q69 12 156 12q15 0 15 -15t-15 -15q-122 0 -166 -16q-32 -12 -48 -12q-10 0 -21 3t-11 14q0 20 19 14zM345 752q5 18 19 18q8 0 12 -12q9 -26 12 -67q3 -54 6 -68q31 -174 31 -278q0 -159 -27 -235q-46 -129 -180 -129
q-14 0 -28 10t-26 20q-62 41 -77 180q-6 56 -20 170q-23 167 -23 420q0 15 15 15t15 -15q0 -251 23 -416q8 -56 20 -170q7 -64 23 -100q19 -45 63 -77q9 -7 15 -7q112 0 152 109q25 71 25 225q0 70 -16 173q-18 117 -20 167q-2 25 -5 41h-2q-9 2 -11 11q-1 9 4 15zM215 750
q40 7 119 27q73 18 121 25q17 2 17 -15q0 -13 -13 -15q-47 -7 -120 -25q-79 -20 -118 -27q-18 -3 -18 15q0 13 12 15zM135 801q4 -26 11 -85q6 -64 16 -243q8 -154 20 -244q22 -175 112 -200q11 -3 11 -14q0 -20 -19 -14q-83 22 -115 130q-12 40 -29 184q-7 66 -14 199
q-7 144 -12 200q-3 23 -11 83q-2 17 15 17q13 0 15 -13z" />
    <glyph glyph-name="V" unicode="V" horiz-adv-x="416" 
d="M-19 794q10 0 26 -4t26 -4q31 0 99 17t100 17q15 0 15 -15t-15 -15q-34 0 -100 -9t-99 -9q-10 0 -26 -4t-26 -4q-15 0 -15 15t15 15zM66 780q7 -82 43 -302q6 -42 17 -118q6 -39 20 -97q19 -77 23 -93q13 -63 26 -115q12 119 28 202q8 35 23 117q19 96 49 294q1 9 13 51
q10 34 7 50t15 16q13 0 15 -13q3 -20 -6 -54q-13 -44 -14 -54q-7 -57 -24 -147q-19 -105 -25 -147q-1 -9 -23 -119q-17 -82 -37 -284q-2 -15 -15 -15q-11 0 -15 13q-25 96 -47 199q-16 62 -43 192q-5 41 -17 118q-17 103 -43 304q-1 16 15 16q14 0 15 -14zM221 762
q66 15 153 41q30 16 43 16q20 0 44 8q20 7 20 -14q0 -11 -10 -14q-30 -10 -54 -10q-7 0 -23 -9t-22 -10q-64 -18 -145 -38q-18 -4 -18 15q0 12 12 15zM126 801q7 -59 27.5 -169.5t27.5 -165.5q2 -45 11 -141q2 -14 20 -100q13 -62 12 -102q-1 -14 -15 -14q-16 0 -15 16
q1 38 -12 98q-18 84 -20 98q-2 46 -11 141q-7 55 -27.5 165.5t-27.5 169.5q-2 17 15 17q13 0 15 -13z" />
    <glyph glyph-name="W" unicode="W" horiz-adv-x="646" 
d="M18 786q26 -67 43 -168q14 -85 28 -171q9 -38 26 -115q19 -88 57 -262q12 75 39 233q17 70 41 207q8 89 32 257q3 12 15 12q18 0 15 -18q-10 -47 -19 -127q-6 -64 -13 -128q-5 -39 -19 -105q-19 -88 -22 -104q-16 -101 -54 -306q-4 -14 -15 -14q-12 0 -15 14
q-25 113 -72 335q-9 39 -26 115q-13 85 -27 169q-17 100 -42 166q-1 3 -1 6q0 14 15 14q10 0 14 -10zM80 795q22 -135 78 -358q7 -36 25 -110q11 -39 22 -79q11 -45 13 -80q1 -16 -15 -16q-14 0 -15 14q-2 35 -33 153q-9 37 -27 110q-32 132 -43 180q-19 84 -35 182
q-3 17 15 17q13 0 15 -13zM448 23q-12 3 -12 13q0 18 16 18q9 0 17 -9l2 -3q1 -1 1 -2q-3 -20 -21 -8q2 11 -12 49q-10 25 -19 51q-19 61 -44 166q-17 129 -63 425q-2 11 -11.5 26.5t-12.5 26.5q-4 18 15 18q12 0 15 -12q1 -18 6 -57q12 -66 43 -211q25 -118 38 -212
q4 -34 42 -162q11 -28 22 -57q14 -38 11 -57q-3 -13 -15 -13q-9 0 -15 6zM432 -26v-2q-2 -19 -19 -19q-24 0 -43 96q-9 40 -26 131q-20 147 -30 202q-18 93 -50 197q-6 19 14 19q11 0 14 -11q33 -104 51 -199q11 -56 31 -204q19 -141 50 -206q-9 0 -11 5q-3 -6 -10 -6
q1 7 10 20.5t41 172.5q23 112 29 144q16 87 20 143q6 78 17 227q3 59 -6 63.5t-9 12.5q0 15 17 15q23 0 28 -42q2 -18 0 -51q0 -1 -17 -227q-6 -83 -30 -200q-21 -98 -42 -197q-6 -30 -10 -44q-9 -30 -19 -40zM425 744q31 12 107 33q69 18 106 36l16 8q0 -2 -2 -4
q17 -4 9 -19q-21 -3 -19 -3q-15 0 -15 15t15 15q3 0 13 2q8 2 13 0q13 -3 13 -12q0 -15 -20 -25q-5 -2 -11 -5q-37 -17 -106 -36q-77 -21 -107 -33q-4 -1 -7 -1q-14 0 -14 15q0 10 9 14zM-102 760q51 30 118 41q61 8 122 15q26 4 41 17q5 4 10 4q15 0 15 -15q0 -7 -5 -11
q-21 -18 -54 -24l-58 -6q-62 -8 -89 -14q-48 -12 -84 -33q-4 -2 -8 -2q-15 0 -15 15q0 8 7 13z" />
    <glyph glyph-name="X" unicode="X" horiz-adv-x="499" 
d="M294 2q4 -7 7 -13q1 -4 -8.5 -9.5t-15.5 -5.5q-2 0 -3 2q-10 27 -32 81q-13 23 -38 77q-61 161 -133 393l-40 122q-23 76 -33 129q-3 18 15 18q13 0 15 -12q8 -44 71 -249q72 -231 133 -391q1 -3 36 -73q8 -23 26 -69zM333 25q-15 53 -46 123l-54 120q-18 31 -46 97
q-31 91 -87 268q-13 55 -43 155q-1 3 -1 6q0 14 15 14q10 0 14 -10q10 -25 23 -77q16 -65 20 -80q31 -90 87 -268q6 -19 22 -47q19 -36 24 -46l62 -140q34 -81 48 -145q3 -16 -18 -16q-6 0 -9 5q-14 19 -14 35q0 4 3 6zM-67 781l134 44q78 23 137 32q17 2 17 -15
q0 -13 -13 -15q-58 -8 -134 -32q-66 -21 -131 -42q-20 -7 -20 14q0 11 10 14zM212 -16q52 9 136 32q111 31 134 37q19 4 19 -15q0 -12 -11 -15q-92 -26 -272 -69q-18 -3 -18 15q0 13 12 15zM302 784q-22 -77 -61 -226q-7 -47 -24 -132q-3 -11 -14 -11q-20 0 -14 19
q7 48 22 132q23 74 61 224q3 12 15 12q19 0 15 -18zM72 -4q-3 4 -3 8q0 13 15 13q25 0 16 -36q-5 -19 -15 -19q-17 0 -15 25q1 14 12 65q35 155 40 266q1 14 15 14q16 0 15 -16q-6 -113 -40 -270q-5 -20 -12 -61q-1 2 -1 4q-7 -15 -14 -15q-8 0 -13 17q-1 -1 -1 -2v8z
M-14 -26q94 28 101 30q65 22 92 48q4 4 10 4q15 0 15 -15q0 -6 -5 -11q-30 -29 -97 -52q-12 -5 -108 -32q-19 -6 -19 14q0 11 11 14zM195 781l108 54q62 29 115 36q17 2 17 -15q0 -13 -13 -15q-49 -6 -111 -35q-52 -27 -104 -53q-3 -1 -6 -1q-15 0 -15 16q0 9 9 13z" />
    <glyph glyph-name="Y" unicode="Y" horiz-adv-x="483" 
d="M13 793q26 -56 94 -185q55 -104 90 -187q1 -3 1 -7q0 -14 -15 -14q-10 0 -14 9q-35 84 -89 187q-68 128 -95 185q-1 3 -1 6q0 15 16 15q8 0 13 -9zM84 813q38 -59 86 -167q55 -125 81 -171q16 -28 22 -54q4 -18 -15 -18q-12 0 -15 12q-4 21 -20 48q-22 41 -25 47l-64 146
q-39 84 -76 141q-2 4 -2 8q0 15 15 15q8 0 13 -7zM-117 767q58 28 156 48q134 28 160 35q19 6 19 -14q0 -11 -11 -14q-26 -8 -158 -35q-96 -20 -154 -48q-3 -1 -6 -1q-15 0 -15 15q0 9 9 14zM351 796q-32 -138 -55 -299q-2 -12 -12 -44q-9 -28 -9 -45q0 -76 15 -195t15 -195
q0 -15 -15 -15t-15 15q0 76 -15 195t-15 195q0 19 9 47q10 34 12 46q23 163 55 301q3 12 15 12q19 0 15 -18zM213 404q0 -175 29 -302q11 -47 11 -82q0 -15 -15 -15t-15 15q0 30 -11 77q-13 59 -15 77q-14 119 -14 230q0 15 15 15t15 -15zM131 -6q88 41 266 67q17 2 17 -15
q0 -13 -13 -15q-174 -25 -258 -65q-3 -1 -6 -1q-15 0 -15 16q0 8 9 13zM273 764q3 -18 -15 -18q-13 0 -36 -4q-19 -3 -19 14q0 10 11 15q59 26 118 51q68 29 122 41q18 4 18 -15q0 -12 -12 -15q-63 -14 -187 -69z" />
    <glyph glyph-name="Z" unicode="Z" horiz-adv-x="441" 
d="M36 719l1 4q20 51 66 59q17 3 17 -15q0 -13 -13 -15q-54 -9 -54 -115q0 -11 1 -48q1 -26 0 -48q-1 -15 -15 -15q-15 0 -15 16q0 62 -29 240q-3 17 15 17q13 0 15 -13zM5 791q8 0 26 -2q15 -2 27 -2q21 0 53.5 4t53.5 4q16 0 46 -1t47 -1q3 0 9.5 1.5t9.5 1.5q21 3 64 9
q16 1 16 -15q0 -14 -14 -15q-20 -4 -64 -9q-3 0 -10 -1.5t-11 -1.5q-17 0 -47 1t-46 1q-21 0 -53.5 -4t-53.5 -4q-12 0 -27 2q-19 2 -28 2q-14 1 -14 15q0 16 16 15zM270 774q-11 -71 -26 -132q-45 -177 -54 -219q-24 -106 -41 -223q-5 -33 -31 -110q-24 -70 -26 -111
q-1 -14 -15 -14q-16 0 -15 16q2 42 26 112q26 78 31 111q22 154 95 446q15 59 26 128q2 13 15 13q18 0 15 -17zM369 169q-17 -78 -23 -95q-17 -55 -46 -85q-5 -5 -11 -5q-15 0 -15 15q0 6 4 10q32 34 53 125q24 107 40 137q5 10 14 10q14 0 14 -17v-49q0 -128 6 -150
q3 -15 3 -26q0 -30 -30 -30q-17 0 -45 -6q-34 -7 -46 -8q-51 -5 -103 -10q-43 -6 -100 -25q-20 -7 -20 14q0 11 10 14q59 20 104 27q53 5 107 10q36 4 95 14q0 1 -1 3q-3 11 -7 34q-3 46 -3 93zM311 783l25 13q4 1 6 0t1 -5q-23 -48 -36 -126q-11 -64 -22 -129
q-8 -33 -38 -128q-25 -80 -31 -130q-4 -32 -29 -148q-20 -91 -20 -150q0 -15 -15 -15t-15 15q0 115 44 284l74 278q33 152 80 253q2 3 5 1t2 -6l-9 -27q-4 -5 -11 -5q-15 0 -15 15q0 5 4 10z" />
    <glyph glyph-name="bracketleft" unicode="[" horiz-adv-x="272" 
d="M-3 817q39 4 74 4q25 0 74 -5t76 -5q15 0 15 -15t-15 -15q-27 0 -76 5t-74 5q-34 0 -70 -4q-17 -2 -17 15q0 13 13 15zM25 803q-24 -189 -24 -254q0 -92 12 -222l22 -222q4 -52 12 -81q6 -19 -14 -19q-11 0 -14 11q-10 34 -14 85q-4 43 -7 85q-27 260 -27 363
q0 67 24 258q2 13 15 13q17 0 15 -17zM74 802q-15 -87 -15 -185q0 -50 11.5 -148t11.5 -147q0 -28 -5.5 -82t-5.5 -79q0 -20 2 -37q4 -23 15.5 -59.5t14.5 -56.5q3 -17 -15 -17q-13 0 -15 13q-3 20 -2.5 60.5t-1.5 59.5q-6 76 -19 229q-21 204 -21 264q0 101 15 191
q2 12 15 12q18 0 15 -18zM32 38q48 14 96 29q57 17 98 17q13 0 26 -2t13 -15q0 -17 -17 -15q-10 1 -21 1q-38 0 -95 -17l-92 -28q-19 -4 -19 15q0 12 11 15z" />
    <glyph glyph-name="backslash" unicode="\" horiz-adv-x="370" 
d="M25 808q19 -93 94 -324q14 -33 38 -98l138 -392q1 -3 1 -6q0 -14 -15 -14q-11 0 -14 10l-138 392q-14 34 -38 98q-47 143 -53 163q-27 89 -43 165q-3 18 15 18q12 0 15 -12zM19 807q20 7 57 27q6 4 11 4q12 0 13 -15q11 -162 74 -342q26 -79 51 -158q32 -99 59 -155
q19 -32 38 -65q25 -42 25 -69q0 -19 -21 -41q-16 -17 -33 -33q-4 -5 -12 -5q-14 0 -14 11t17 27q33 32 33 41q0 20 -25 61q-35 60 -36 61q-26 57 -58 155l-52 160q-61 174 -74 326q-39 -19 -48 -19q-14 0 -14 16q0 9 9 13z" />
    <glyph glyph-name="bracketright" unicode="]" horiz-adv-x="229" 
d="M167 -9q1 7 1 61q0 25 -1.5 80t-1.5 82q0 47 1.5 153.5t1.5 154.5q0 31 -1.5 87t-1.5 86q0 3 3.5 29.5t3.5 41.5q0 29 -12 29q-16 0 -44 1t-46 1l-69 -10q-17 -2 -17 15q0 13 13 15q71 10 73 10q18 0 46 -1t44 -1q42 0 42 -56q0 -15 -3.5 -41t-3.5 -33q0 -30 1.5 -86
t1.5 -87q0 -48 -1.5 -154.5t-1.5 -153.5q0 -27 1.5 -82t1.5 -80q0 -58 1 -51q-4 -40 -23 -40q-15 0 -33.5 -3t-28.5 -3q-5 0 -15.5 2t-15.5 2q-10 0 -28.5 -4t-27.5 -4t-21 -4.5t-16 -4.5q-14 0 -14 13q0 12 19 20q16 6 31 6q10 0 28.5 4t28.5 4q5 0 15.5 -2t15.5 -2
q10 0 26 2.5t27 3.5zM146 810q0 -57 6 -160t6 -160q0 -47 -5.5 -147t-5.5 -149q0 -37 2 -69q9 -122 9 -154q0 -15 -15 -15t-15 15q0 31 -9 152q-2 32 -2 70q0 49 5.5 149.5t5.5 147.5q0 57 -6 160t-6 160q0 15 15 15t15 -15z" />
    <glyph glyph-name="asciicircum" unicode="^" horiz-adv-x="346" 
d="M-28 685q98 118 158 171q5 4 10 4q15 0 15 -15q0 -7 -5 -11q-58 -52 -154 -169q-5 -5 -12 -5q-15 0 -15 15q0 5 3 10zM91 799q1 -1 93 -55q55 -32 76 -74q2 -4 2 -7q0 -15 -15 -15q-9 0 -13 8q-18 36 -73 67q-85 50 -88 52q-6 5 -6 12q0 15 15 15q5 0 9 -3zM146 861
q39 -48 98 -93l42 -28q27 -20 27 -39q0 -13 -39 -57l-7 -6q-5 -9 -12 -9q-13 0 -13 18q0 7 4 12l5 6q13 12 32 37q-4 8 -27 22l-30 20q-61 47 -104 97q-3 5 -3 10q0 15 15 15q7 0 12 -5z" />
    <glyph glyph-name="underscore" unicode="_" horiz-adv-x="817" 
d="M-22 52q0 15 15 15t15 -15t-15 -15t-15 15zM9 56q-16 -44 -51 -137q-4 -9 -14 -9q-15 0 -15 14q0 4 1 7q10 23 34 62.5t35 66.5q2 5 7 3t3 -7zM-13 73q17 0 42 -2q21 -2 37 -2q206 0 463 50q43 8 77 8q18 0 120 -8q14 -1 14 -15q0 -16 -16 -15q-101 8 -118 8
q-39 0 -109 -14q-86 -17 -110 -20q-214 -24 -321 -24q-16 0 -37 2q-26 2 -41.5 2t-15.5 15t15 15zM692 27q8 42 48 99q32 45 65 75q5 4 10 4q15 0 15 -15q0 -6 -5 -11q-35 -32 -67 -80q-38 -56 -38 -91q0 -14 -15 -14q-7 0 -19 2.5t-15 2.5q-31 0 -91.5 -13t-91.5 -13
q-16 0 -52 4t-54 4q-37 0 -118 -4t-116 -4q-21 0 -54.5 3t-55.5 3q-12 0 -30 -2.5t-28 -2.5q-16 -1 -16 15q0 14 14 15q10 0 30 3q17 2 30 2q22 0 55.5 -3t54.5 -3q35 0 116 4t118 4q18 0 54 -4t52 -4q31 0 91.5 13t91.5 13q8 0 21 -2z" />
    <glyph glyph-name="grave" unicode="`" horiz-adv-x="312" 
d="M44 812q43 -41 119 -129q30 25 49 35q-34 11 -99 39t-99 39q-10 3 -10 14q0 21 20 14q27 -8 119 -48q73 -31 121 -40q15 -3 15 -15q0 -11 -14 -15q-41 -10 -95 -57q-14 -12 -23 3q-19 32 -59 73q-59 59 -66 67q-4 5 -4 10q0 15 15 15q7 0 11 -5z" />
    <glyph glyph-name="a" unicode="a" horiz-adv-x="438" 
d="M96 589l4 -6q25 -35 25 -107q0 -85 -43 -85q-23 0 -36 29q-11 22 -11 48q0 49 33 126q4 9 13 9q16 0 16 -14q0 -4 -1 -7q-31 -71 -31 -114q0 -10 5 -26q5 -21 12 -21q13 0 13 55q0 45 -3.5 57t-23.5 43q-5 8 -5 14q0 12 24 32q55 47 107 47q37 0 37 -26q0 -8 -3 -19
l-1 -2q1 -25 7 -61q9 -54 10 -63q6 -47 4.5 -139.5t4.5 -137.5q6 -55 13 -110q15 -96 35 -96q7 0 20 17l3 5q17 21 35 41q20 25 25 47q3 11 15 11q20 0 15 -19q-7 -25 -28 -52l-38 -46l-3 -4q-22 -30 -44 -30q-44 0 -58 81q-18 109 -23 186q-2 32 -1 121q1 76 -5 121
q-5 34 -11 68q-8 54 -5 66l1 4q1 4 1 7q-61 -4 -103 -49zM279 627q-38 7 -81 7q-15 0 -15 15t15 15q84 0 99.5 -13.5t19.5 -55.5q1 -32 2 -63q9 -95 12 -200q6 -180 29 -267q4 -19 -15 -19q-12 0 -15 11q-21 82 -28 232q-7 121 -13 241q-1 25 -1 49q-2 37 -9 48zM237 446
q-26 -53 -44 -75q-22 -28 -65.5 -56.5t-56.5 -41.5q-24 -26 -24 -63q0 -66 19 -122q27 -79 81 -79q24 0 58.5 43.5t34.5 68.5q0 15 15 15t15 -15q0 -35 -41 -87q-43 -55 -82 -55q-69 0 -104 87q-26 64 -26 144q0 47 32 82q13 14 69 54q47 33 66 64q9 15 27 50q4 8 13 8
q15 0 15 -15q0 -3 -2 -7zM151 331q-28 -99 -28 -148q0 -128 67 -145q11 -3 11 -15q0 -19 -19 -15q-89 24 -89 175q0 54 30 156q3 11 14 11q20 0 14 -19z" />
    <glyph glyph-name="b" unicode="b" horiz-adv-x="438" 
d="M-45 910q30 0 74 12q57 15 74 18q32 0 80 10q4 2 7 2q15 0 15 -15q0 -9 -8 -13q-15 -8 -44 -11q-23 -1 -46 -3q-16 -2 -75 -18q-46 -12 -77 -12q-15 0 -15 15t15 15zM101 910q0 -79 -2 -201.5t-2 -200.5v-52q0 -16 -1 -84q-1 -55 0 -89q1 -48 5 -82q7 -47 17 -141
q2 -19 5 -30q7 -20 -14 -20q-11 0 -14 10q-5 15 -6 38q-2 19 -3 38q-5 31 -15 101q-4 35 -5 84q-1 34 0 90q1 70 1 85v52q0 78 2 200.5t2 201.5q0 15 15 15t15 -15zM186 935q-4 -22 -12 -70q-15 -100 -15 -344q0 -51 6 -138t6 -134q0 -32 8 -86q9 -63 10 -87q1 -10 5 -24
t4 -15q0 -15 -15 -15q-9 0 -13 8q-9 15 -11 43q-3 46 -3 47q-15 95 -15 129q0 47 -6 134t-6 138q0 247 15 348q4 22 12 70q2 13 15 13q17 0 15 -17zM112 65q97 -48 153 -48q40 0 72 49q26 39 33 83q4 31 2 73q-3 69 -3 76q0 59 -20 181q-14 87 -34 119q-29 45 -96 45
q-44 0 -74 -50q-5 -7 -13 -7q-15 0 -15 15q0 4 2 8q39 64 100 64q84 0 121 -59q24 -38 39 -131q20 -124 20 -185q0 -33 -9 -76q-15 -68 -16 -73q-9 -57 -32 -101q-32 -61 -77 -61q-64 0 -167 52q-8 4 -8 13q0 15 15 15q3 0 7 -2zM271 663q17 -46 43 -129q19 -88 19 -276
q0 -97 -9 -149q-16 -89 -63 -127q-4 -3 -9 -3q-15 0 -15 15q0 7 6 12q60 49 60 252q0 185 -19 270q-17 47 -43 127q-5 19 15 19q12 0 15 -11z" />
    <glyph glyph-name="c" unicode="c" horiz-adv-x="358" 
d="M261 626q-17 41 -94 41q-57 0 -89 -67q-27 -57 -27 -134q0 -20 -2 -56.5t-2 -58.5q0 -103 11 -154q14 -67 61 -140q37 -56 71 -56q57 0 102 137q7 22 7 61q0 15 15 15t15 -15q0 -85 -49 -165q-39 -63 -90 -63q-38 0 -71 36q-14 16 -46 68q-35 58 -47 129q-9 53 -9 147
q0 22 2 58.5t2 56.5q0 83 30 147q39 84 116 84q96 0 122 -59q1 -3 1 -7q0 -14 -15 -14q-10 0 -14 9zM116 678l10 11q5 5 11 5q12 0 12 -11q0 -3 -3 -7q-25 -41 -34 -86q-7 -35 -7 -98q0 -49 8 -119q10 -82 11 -111q8 -165 52 -246q2 -4 2 -7q0 -15 -15 -15q-9 0 -13 8
q-47 87 -56 258q-1 29 -11 112q-8 70 -8 120q0 115 51 196q4 7 10 7q11 0 11 -13q0 -3 -1 -7l-6 -13q-4 -7 -12 -7q-15 0 -15 15q0 4 3 8zM286 639q23 -104 23 -128q0 -33 -16 -61q-18 -35 -49 -35q-47 0 -47 126q0 102 67 120q19 6 19 -14q0 -11 -11 -14q-45 -13 -45 -92
q0 -96 17 -96q16 0 27 26q8 21 8 40q0 21 -23 122q-4 18 15 18q12 0 15 -12z" />
    <glyph glyph-name="d" unicode="d" horiz-adv-x="505" 
d="M258 598q-81 37 -107 37q-108 0 -108 -230q0 -190 26 -263q18 -50 50 -86q38 -43 77 -43q26 0 57 56q29 52 31 84q1 14 15 14q16 0 15 -16q-2 -38 -35 -96q-39 -72 -83 -72q-53 0 -99 53q-36 41 -56 96q-28 78 -28 273q0 260 138 260q33 0 119 -39q9 -4 9 -13
q0 -16 -15 -16q-3 0 -6 1zM141 622l-1 12q-31 -22 -39 -92q-4 -30 -4 -110q0 -126 20 -196q23 -81 91 -172q14 -19 30 -31q6 -5 6 -12q0 -15 -15 -15q-4 0 -9 3q-19 13 -34.5 34.5t-30.5 41.5q-88 110 -88 347q0 208 81 235q16 6 23 -41q2 -17 -16 -17q-13 0 -14 13zM373 39
q-5 27 -12 82q-16 176 -16 202q0 143 0 142q-2 30 -13.5 83.5t-13.5 82.5t-2 59q0 39 4.5 106t4.5 99q0 23 -2 45q-32 -4 -81 -22q-63 -22 -79 -27q-19 -5 -19 15q0 12 10 14.5t90 29.5q54 19 92 21q15 1 16 -14q3 -28 3 -59q0 -32 -4.5 -99.5t-4.5 -106.5q0 -30 2 -59
t13.5 -82.5t13.5 -83.5v-144q0 -24 16 -200q10 -107 -12 -107q-5 0 -12 6t-7 11q0 8 8 8q3 0 5 -2zM255 937q14 -45 18 -114q3 -59 6 -117q6 -30 15 -93q4 -100 16 -286q2 -28 18 -156q12 -92 13 -157q60 21 89 21q66 0 95 -12q9 -4 9 -14q0 -15 -14 -15q-4 0 -7 1
q-23 10 -83 10q-23 0 -51 -9q-24 -8 -49 -16q-19 -6 -19 14q0 71 -12 166q-17 146 -19 165q-5 98 -16 286q-6 28 -15 93q-3 56 -5 113q-4 68 -17 112q-6 19 14 19q11 0 14 -11z" />
    <glyph glyph-name="e" unicode="e" horiz-adv-x="352" 
d="M198 657q-85 -53 -111 -98q-44 -78 -44 -289q0 -82 26 -136q21 -41 83 -107q25 -26 47 -26q23 0 26 5l12 21q22 24 44 61q26 48 26 79q0 8 -3.5 17t-3.5 11q0 10 10 10q5 0 8 -5q10 -17 10 -38q0 -36 -30 -90q-23 -38 -45 -76q-12 -25 -54 -25q-28 0 -49 16
q-17 18 -35 35q-102 90 -102 248q0 219 48 303q29 52 121 110q4 2 8 2q15 0 15 -15q0 -8 -7 -13zM239 52l1 1l4 -5q0 -5 -11 -8q-2 -13 -6 -13h-1q-17 5 -60 55q-40 45 -51 67q-60 111 -60 264q0 106 59 244q4 9 14 9q15 0 15 -14q0 -4 -1 -7q-57 -132 -57 -232
q0 -146 56 -250q24 -45 102 -112q2 -1 2 -3q0 -5 -12 -8q-2 -12 -7 -12q-4 0 -9.5 8t-5.5 13q0 17 17 17q11 0 11 -14zM161 600q-5 -4 -9 -4q-20 0 -20 44q0 33 14 33q6 0 13 -8q22 -25 30 -56q15 -53 15 -139q0 -52 -6 -89q-3 -12 -15 -12q-18 0 -15 18q6 33 6 83
q0 81 -13 130zM60 380q126 23 187 23q10 0 29 -2v67q-4 42 -19 125q-17 58 -61 58q-39 0 -63 -18q-3 -2 -5 -2q-8 0 -8 8q0 4 3 6q16 12 33.5 24t39.5 12q66 0 91 -78q11 -33 19 -132v-2v-85q0 -16 -16 -15q-4 0 -21 2q-13 2 -22 2q-58 0 -181 -23q-18 -3 -18 15q0 12 12 15
z" />
    <glyph glyph-name="f" unicode="f" horiz-adv-x="419" 
d="M102 -6v2q0 249 -4 291q-15 158 -15 221q0 20 -2 55.5t-2 58.5q0 107 3 135q10 87 48 121q6 5 59 44q4 3 9 3q15 0 15 -15q0 -7 -6 -12q-20 -13 -57 -42q-32 -28 -39 -111q-2 -22 -2 -123q0 -23 2 -59t2 -55q0 -62 15 -219q4 -42 4 -295q0 -4 -15 -4q-15 -1 -15 3v1z
M268 921q-22 -14 -44 -27q-18 -13 -24 -48q-15 -93 -15 -329q-14 -8 -15 -1q-13 3 -15 3q0 2 1 9q0 7 15 0q15 9 15 1v-2v-89q0 -23 -2 -99t-2 -120q0 -128 14 -182q4 -20 5 -34q1 -16 -15 -16q-14 0 -15 14q-4 21 -11 61q-5 51 -6 122q-1 48 0 129q2 98 2 125v88q14 9 15 2
q14 -7 14 -4l1 1q0 -1 -1 -9q0 -3 -15 0q-15 -9 -15 -1v2q-2 48 -2 96q0 248 42 295q10 11 27 21q27 14 30.5 16.5t7.5 2.5q15 0 15 -15q0 -8 -7 -12zM-17 -37q22 21 55 27t64 11q117 23 279 54q18 3 18 -15q0 -12 -12 -15q-162 -30 -279 -54q-28 -4 -55 -8q-32 -6 -50 -22
q-4 -4 -10 -4q-15 0 -15 15q0 6 5 11zM-33 589q76 17 113 34q3 1 7 1q14 0 14 -16q0 -9 -9 -13q-40 -17 -119 -36q-18 -4 -18 15q0 12 12 15zM179 651q59 1 128 15q18 3 18 -15q0 -12 -12 -15q-71 -14 -134 -15q-15 0 -15 15t15 15zM212 922q24 18 47 36q27 17 57 17
q32 0 49 -42q14 -32 14 -68q0 -42 -12 -73q-17 -41 -53 -41q-28 0 -43 39q-12 30 -12 63q0 85 60 116q4 2 7 2q15 0 15 -15q0 -9 -8 -13q-44 -23 -44 -90q0 -16 6 -41q8 -31 19 -31q35 0 35 84q0 20 -8 46q-10 34 -25 34q-23 0 -47 -16q-19 -16 -39 -31q-4 -3 -9 -3
q-15 0 -15 15q0 7 6 12z" />
    <glyph glyph-name="g" unicode="g" horiz-adv-x="465" 
d="M137 590q-3 -11 -11 -11q-7 0 -4 8q-3 13 -3 18q0 19 17 19q28 0 57 -97q16 -37 46 -114q36 -101 36 -246q0 -21 -10 -38q-4 -6 -11 -6q-8 -1 -13 3q-9 10 -39.5 26t-38.5 25q-35 44 -56 123q-18 70 -18 140q0 213 93 213q22 0 38 -13.5t31 -27.5q74 -68 74 -242
q0 -78 -40 -210q-11 -38 -23 -49q-16 -16 -55 -16q-63 0 -129 83q-47 59 -47 221q0 81 29 145q26 57 85 121q5 5 11 5q15 0 15 -15q0 -6 -4 -10q-56 -61 -80 -113q-26 -58 -26 -133q0 -151 41 -203q56 -71 105 -71q27 0 36 10q5 5 14 33q38 129 38 202q0 161 -64 220
q-11 11 -22 21q-14 12 -27 12q-37 0 -53 -77q-10 -47 -10 -106q0 -60 17 -133q23 -95 61 -118l48 -27v5q0 139 -34 236q-17 36 -46 116q-7 25 -28 71zM156 662l80 20q48 11 82 11q135 0 117 -34q-15 -38 -46 -104q-6 -12 -12 -12t-19 22q-16 28 -29 40q-22 22 -51 22
q-24 0 -59 -12q-44 -15 -57 -18q-18 -3 -18 15q0 12 13 14.5t59 18.5q37 12 62 12q24 0 53 -17t46 -41q8 19 23 56q-48 8 -82 8q-20 0 -156 -31q-18 -4 -18 15q0 12 12 15zM185 95q-62 -54 -62 -82q0 -6 9.5 -13t20.5 -7q30 0 98 10t99 10q179 0 179 -176q0 -92 -74 -189
q-77 -103 -162 -103q-101 0 -154 68q-46 61 -46 162t32 136q5 5 11 5q15 0 15 -15q0 -6 -4 -10q-24 -26 -24 -116q0 -91 40 -143q44 -57 130 -57q72 0 141 94q65 89 65 168q0 146 -149 146q-31 0 -99 -10t-98 -10q-20 0 -38 13q-22 15 -22 37q0 41 72 104q5 4 10 4
q15 0 15 -15q0 -7 -5 -11zM119 48q-18 -69 -18 -93q0 -50 62 -50q40 0 115.5 23t115.5 23q44 0 83.5 -54.5t39.5 -108.5q0 -35 -20 -54q-4 -4 -9 -4q-13 0 -13 13q0 5 4 9q15 15 15 41q0 42 -32.5 85t-67.5 43q-40 0 -115.5 -23t-115.5 -23q-38 0 -63 18q-29 22 -29 62
q0 28 20 101q2 11 14 11q20 0 14 -19zM136 -168q0 1 -4.5 -31t-4.5 -45q0 -26 23 -54q20 -24 41 -34q5 5 13 8q26 -12 51 -25q33 -14 54 -14q58 0 101 30q48 32 42 83q-2 14 13 14q12 0 13 -12q7 -62 -48 -105q-51 -40 -121 -40q-26 0 -60 15q-29 13 -57 26q-1 1 -1 11
q-1 4 -2 5q-92 44 -92 92q0 13 4.5 45t4.5 31q0 15 15 15t15 -15z" />
    <glyph glyph-name="h" unicode="h" horiz-adv-x="542" 
d="M-57 951q53 19 106 37q62 22 109 26q16 1 16 -15q0 -14 -14 -15q-44 -4 -106 -25q-101 -36 -103 -36q-19 -6 -19 14q0 11 11 14zM70 970q2 -38 12 -124q3 -19 3 -141q0 -57 2 -167t2 -169q0 -39 -3.5 -121t-3.5 -119q0 -81 -5 -91q-8 -18 -15 -18q-14 0 -14 40
q0 15 15 15t15 -15v-11.5t0 -0.5q-8 -16 -15 -16t-13 18q0 -1 -1 -3q3 20 3 82q0 37 3.5 119t3.5 121q0 59 -2 169t-2 167q0 120 -3 137q-3 38 -12 124q-2 17 15 17q13 0 15 -13zM151 999l9 -234q6 -142 6 -235q0 -76 -3 -143q-1 -10 -16 -120v-258q0 -15 -15 -15t-15 15
v261q7 36 16 119q3 66 3 142q0 92 -5 234q-9 206 -10 234q0 15 15 15t15 -15zM-41 -14q31 7 133 46q81 31 136 35q16 1 16 -15q0 -14 -14 -15q-54 -4 -134 -35q-99 -38 -131 -46q-18 -4 -18 15q0 12 12 15zM143 566q49 79 68 101q49 60 95 60q50 0 76 -35q20 -26 29 -78
q5 -42 11 -84q9 -34 19 -102q4 -113 4 -218q0 -15 3 -49t3 -51q0 -39 -11 -64q-4 -9 -14 -9q-15 0 -15 14q0 4 5 24.5t5 36.5q0 17 -3 51t-3 47q0 105 -4 216q-1 20 -8 50q-9 41 -11 48q-7 54 -15 108q-18 65 -71 65q-35 0 -79 -57q-14 -18 -58 -90q-5 -7 -13 -7
q-15 0 -15 15q0 4 2 8zM362 21q15 16 26 20q7 3 32 7q21 3 61.5 19t62.5 19q17 2 17 -15q0 -13 -13 -15q-22 -3 -62 -19t-62 -19q-28 -4 -41 -18q-20 -23 -34 -31q-6 -3 -11 -3q-15 0 -12 19q14 75 14 218q0 162 -18 248q-6 33 -11 93q-6 68 -10 93q0 5 -2 9q-10 5 -28 5
h-28q-14 1 -14 15q0 16 16 15q27 -1 53 -3q29 -6 33 -36q4 -63 21 -185q18 -91 18 -266q0 -109 -8 -170z" />
    <glyph glyph-name="i" unicode="i" horiz-adv-x="333" 
d="M-17 603q29 12 99 31q64 18 97 34q5 3 10 3q17 0 12 -20q-9 -35 -9 -79q0 -4 6 -109q19 -315 19 -438q0 -15 -15 -15t-15 15q0 122 -19 436q-8 132 -2 169q-27 -11 -84.5 -26.5t-86.5 -28.5q-3 -1 -7 -1q-14 0 -14 16q0 9 9 13zM89 608q20 -98 21 -104q11 -59 12 -106
q1 -63 25 -380q1 -16 -15 -16q-14 0 -15 14q-11 127 -25 381q-1 54 -33 205q-3 18 15 18q12 0 15 -12zM22 4q57 26 152 48q129 30 155 37q19 6 19 -14q0 -11 -11 -14q-26 -8 -153 -38q-94 -21 -150 -47q-3 -1 -7 -1q-14 0 -14 16q0 9 9 13zM69 770q0 -8 10.5 -15.5
t18.5 -7.5q23 0 44 19.5t21 41.5q0 20 -11.5 33.5t-27.5 13.5q-42 0 -72 -31q-2 -2 -5 -2q-7 0 -7 7q0 3 2 5q18 17 36.5 34t45.5 17q31 0 50 -23.5t19 -53.5q0 -35 -30.5 -63t-64.5 -28q-17 0 -35 13q-24 16 -24 40q0 26 20 46q33 35 33 36q5 7 13 7q15 0 15 -15
q0 -9 -25.5 -33.5t-25.5 -40.5z" />
    <glyph glyph-name="j" unicode="j" horiz-adv-x="312" 
d="M-4 607q103 36 223 89q3 1 7 1q14 0 14 -15q0 -10 -9 -14q-121 -53 -225 -89q-20 -7 -20 14q0 11 10 14zM228 690q0 -67 8 -198t8 -197v-32q-1 -20 -1 -31q0 -34 5 -61q8 -48 8 -115q0 2 1.5 -15.5t0.5 -26.5q-2 -12 -7 -12q-4 0 -10 6q-7 -8 -11 -8q-5 0 -5 19v12h15
q15 8 15 0q0 -126 -26 -203q-31 -93 -113 -165q-42 -36 -73 -36q-42 0 -83 59q-37 54 -37 91t26 84q29 54 63 54q49 0 49 -82q0 -95 -61 -130q-3 -2 -7 -2q-15 0 -15 15q0 9 8 13q45 26 45 104q0 52 -19 52t-40 -45q-19 -40 -19 -63q0 -29 32 -74.5t58 -45.5q34 0 102 80
q46 54 65 130q15 63 15 164q0 8 15 0q7 2 15 0v-2v-9v-9v2q-7 -8 -11 -8q-2 0 -3 3q-1 -3 -3 -3q-4 0 -12 7v-1.5t0 45.5q0 64 -8 109q-5 31 -5 67q0 11 1 31v32q0 66 -8 197t-8 198q0 15 15 15t15 -15zM147 641q7 -39 20 -119q0 -26 4 -83q6 -33 15 -96q11 -124 11 -305
q0 -39 -6 -101q-8 -72 -9 -99q-2 -44 -14 -83q-17 -54 -47 -62q-19 -4 -19 15q0 12 11 15q17 4 29 53q9 35 10 64q1 26 9 98q6 62 6 100q0 180 -11 303q-6 32 -15 96q0 27 -4 81q-7 31 -20 119q-2 17 15 17q13 0 15 -13zM149 898q-15 -18 -30 -37q-18 -23 -18 -41
q0 -8 9 -19.5t14 -11.5q23 0 47 29t24 55q0 10 -7 18t-14 8q-30 0 -52 -18q-12 -10 -36 -42q-5 -6 -12 -6q-15 0 -15 15q0 5 3 9q28 37 46 51q28 21 66 21q22 0 36.5 -18t14.5 -38q0 -36 -31.5 -75t-69.5 -39q-21 0 -38 23q-15 20 -15 38q0 28 18 52l34 42q5 7 13 7
q15 0 15 -15q0 -4 -2 -8z" />
    <glyph glyph-name="k" unicode="k" horiz-adv-x="560" 
d="M-53 936q163 45 210 85q5 4 10 4q15 0 15 -15q0 -7 -5 -11q-53 -45 -222 -91q-19 -6 -19 14q0 11 11 14zM84 62v15q6 234 2 346q-4 107 -19 355q-1 19 -9 90q-6 55 -6 96q0 15 15 15t15 -15q0 -40 6 -95q8 -70 9 -89q23 -367 23 -485q0 -76 -4 -144q1 -44 -3 -114
q-7 3 -15 3l-3 -2q-11 -6 -12 1v2v15q0 3 1 6zM156 51h-3q6 10 3 47q-4 54 -4 51v177q0 29 4.5 88t4.5 90q0 57 -14 172t-14 174q0 68 11 147q2 13 15 13q17 0 15 -17q-11 -77 -11 -143q0 -59 14 -173.5t14 -171.5q0 -31 -4.5 -90.5t-4.5 -88.5v-177q0 -9 2.5 -35t2.5 -39
q0 -24 -6 -38q-2 -3 -8 -6q-12 -7 -19 6q0 10 2 14zM-10 2v19q0 3 6 9t9 6q15 0 39.5 -7t41.5 -6q35 4 89 26t84 46q4 3 9 3q15 0 15 -15q0 -7 -6 -12q-47 -38 -191 -52q-21 -5 -66 -12v-5q0 -15 -15 -15t-15 15zM214 336q32 -16 69 -63q27 -38 55 -77q15 -20 52 -57t52 -59
q13 -18 43 -46.5t42 -45.5q10 -13 20.5 -27t23.5 -19q9 -4 9 -14q0 -15 -14 -15q-18 0 -45 32q-18 23 -37 47q-23 21 -66 70q-16 22 -52.5 59t-51.5 57q-30 41 -59 82q-45 55 -76 55q-19 0 -19 7q0 5 15.5 19.5t17.5 17.5q8 16 90 148q55 90 79 153q4 10 14 10q15 0 15 -14
q0 -3 -1 -6q-46 -121 -176 -314zM570 -60l-5 8q-29 48 -88 109q-85 89 -96 102q-96 113 -147 259q-3 8 2 14t12 6q11 0 14 -10q43 -121 114 -214q30 -39 162 -179q23 -24 51 -68q37 -60 46 -72q4 -6 4 -11q0 -14 -13 -14q-6 0 -12 4q-11 8 -28 30q-19 26 -16 36zM255 650
q144 51 225 51q15 0 15 -15t-15 -15q-44 0 -122.5 -25t-98.5 -25q-14 0 -14 15q0 11 10 14z" />
    <glyph glyph-name="l" unicode="l" horiz-adv-x="367" 
d="M-64 900q114 57 194 90q25 8 52 16.5t44 26.5q5 4 11 4q15 0 15 -15q0 -6 -4 -11q-22 -21 -50.5 -30.5l-55.5 -18.5q-79 -33 -192 -88q-4 -2 -7 -2q-15 0 -15 15q0 9 8 13zM185 19l1 -2l-30 -2q-8 58 -10 160q-4 142 -5 166q-1 18 -7 72q-5 43 -5 76q0 108 -7 235
q-11 198 -12 235q-1 16 15 16q14 0 15 -14q1 -38 12 -236q7 -128 7 -236q0 -32 5 -75q6 -54 7 -71q1 -25 4 -165q3 -101 11 -159h-1zM232 999q0 -77 2 -197t2 -197q0 -17 2 -48t2 -49v-174q0 -27 -3 -91.5t-3 -97.5q0 -79 13 -128q6 -19 -14 -19q-11 0 -14 11
q-15 52 -15 134q0 34 3 98.5t3 92.5v174q0 18 -2 49t-2 48q0 77 -2 197t-2 197q0 15 15 15t15 -15zM66 -18q29 7 69.5 11.5t66.5 11.5q56 20 170 54q19 4 19 -15q0 -12 -11 -15q-30 -7 -85.5 -26.5t-83.5 -26.5t-68.5 -11.5t-68.5 -12.5q-19 -4 -19 15q0 12 11 15z" />
    <glyph glyph-name="m" unicode="m" horiz-adv-x="924" 
d="M0 619q93 36 106 41q59 21 108 33q18 4 18 -15q0 -12 -12 -15q-58 -13 -210 -72q-3 -1 -6 -1q-14 0 -14 15q0 10 10 14zM132 647q0 -34 3 -77q4 -58 5 -73q2 -46 -4.5 -131t-5.5 -125q5 -120 40 -227q7 -20 -14 -20q-11 0 -14 10q-13 40 -16 119v118q-6 83 -16 254
q-1 16 -5 74q-3 44 -3 78q0 15 15 15t15 -15zM194 39q-3 4 -3 9q0 15 16 15q13 0 16 -18l1 -4q-1 1 -4 6q-3 -13 -12 -13q-6 0 -12 7q-1 -1 -1 -3q-1 -11 -4 59q-8 173 -8 209q0 265 12 362q2 13 15 13q17 0 15 -17q-12 -95 -12 -358q0 -142 11 -237q3 -27 0 -37
q-4 -13 -13 -13q-13 0 -17 20zM77 -11q8 -19 -12 -22q-40 1 -40 11q0 4 8 10q47 37 133 63q19 6 146 38q21 5 31 13q5 4 10 4q15 0 15 -15q0 -7 -5 -11q-16 -14 -40.5 -19.5t-47.5 -10.5q-51 -13 -101 -26q-59 -15 -97 -35zM197 534q47 88 77 123q56 66 121 66q47 0 65 -40
l26 -76q15 -33 25 -83q7 -43 15 -86q7 -39 11 -104q5 -79 8 -102q8 -68 8 -104q0 -39 -8 -49q-6 -6 -12 -6q-14 0 -18 39q-2 17 15 17q13 0 15 -13q0 -8 2 -21q-2 2 -3 5q-11 -12 -22 -1q0 -3 -3 -6q7 43 -4 135q-3 68 -19 204q-7 41 -14 83q-9 48 -24 80q-9 30 -19 61
q-14 37 -44 37q-54 0 -104 -63q-24 -31 -68 -110q-4 -8 -13 -8q-15 0 -15 15q0 3 2 7zM476 555q49 73 79 103q55 53 114 53t78 -66q5 -14 15 -112q7 -27 15 -83q1 -31 14 -84q14 -61 17 -84q14 -122 11 -177q-2 -30 4 -48q7 -20 -14 -20q-12 0 -17 20t-2 51q2 35 0 50
q-5 51 -11.5 103.5t-17.5 99.5q-5 43 -20 126q-6 23 -10 71t-10 72q-14 51 -52 51q-50 0 -99 -50q-25 -26 -70 -92q-4 -7 -12 -7q-15 0 -15 15q0 4 3 8zM366 689q15 -23 39 -72q22 -68 33 -174q18 -171 19 -176q0 -23 3 -70q1 -14 16 -76q12 -47 8 -78q21 8 53 10l54 2
q16 1 16 -15q0 -14 -14 -15l-64 -2q-38 -4 -58 -21q-6 -6 -13 -6q-13 0 -13 14q0 4 2 9q8 19 8 43q0 26 -12.5 74t-13.5 71q1 19 -2 56l-20 196q-16 133 -46 181q-23 37 -23 42q0 15 15 15q9 0 13 -8zM640 673q15 -23 29 -47q16 -29 16 -52q0 -15 15 -189q3 -39 16 -111
q15 -84 19 -112q1 -41 9 -122q38 26 101 32q24 3 107 3q15 0 15 -15t-15 -15q-85 0 -109 -3q-66 -8 -97 -40q-7 -6 -12 -6q-18 0 -24 73q-2 44 -5 89q-14 77 -35 225q-15 175 -15 191q0 20 -21.5 53.5t-21.5 38.5q0 15 15 15q9 0 13 -8z" />
    <glyph glyph-name="n" unicode="n" horiz-adv-x="594" 
d="M156 661q-29 -6 -74 -28q-35 -19 -70 -37q-4 -2 -7 -2q-15 0 -15 15q0 9 8 13q42 22 85 44q56 27 88 27q18 0 18 -11q0 -7 -9 -17v0q-3 -8 -11 -9t-13 5zM117 39q4 -6 7 -44q1 -18 -15 -18q-11 0 -15 13q-8 36 -9 90q-1 81 -2 91l-10 110q-6 65 -6 118q0 43 2 120t2 120
q0 15 15 15t15 -15q0 -43 -2 -120t-2 -120q0 -53 6 -117q5 -54 10 -109q1 -18 1 -44l1 -39q0 -30 2 -51zM178 685q-11 -266 -11 -375q0 -19 5 -62q6 -55 6 -60q1 -13 10 -92q6 -59 6 -91q0 -14 -15 -14q-11 0 -14 10q-12 33 -14 91q-2 47 -3 94q0 4 -6 61q-5 43 -5 63
q0 110 11 377q1 14 15 14q16 0 15 -16zM19 -23q52 21 106 42t108 35q9 3 36 17q21 11 41 11q15 0 15 -15t-14 -15t-36 -11q-26 -13 -34 -15q-55 -16 -212 -77q-3 -1 -6 -1q-14 0 -14 15q0 10 10 14zM351 709h-3q-64 0 -180 -148q-5 -6 -12 -6q-15 0 -15 15q0 5 3 9
q125 160 204 160q20 0 28 -15q2 -5 8 -13q17 -21 34.5 -43t22.5 -50q15 -56 35 -162q6 -56 9 -146q4 -118 6 -145q1 -14 6.5 -45.5t5.5 -48.5q0 -24 -27 -24q-11 0 -18 6q-1 2 -10 30q1 8 -2 26q-1 3 2 4t4 -2q5 -7 13 -23q4 -4 15 -13q-1 0 -2 1h-1l-1 1h-1v-1h-1v-2t-1 -1
v-2q0 17 -5 46q-6 33 -7 46q-3 97 -15 289q-3 28 -16 81q-15 59 -18.5 80.5t-19.5 42.5q-16 18 -32 35zM320 700q18 -38 48 -118q27 -110 27 -271q0 -54 12 -142q13 -96 14 -140q71 38 217 50q16 1 16 -15q0 -14 -14 -15q-160 -13 -224 -59q-6 -4 -11 -4q-13 0 -13 16
q0 56 -13.5 155.5t-13.5 153.5q0 216 -45 318q-9 17 -28 59q-1 3 -1 7q0 14 16 14q9 0 13 -9z" />
    <glyph glyph-name="o" unicode="o" horiz-adv-x="392" 
d="M176 651q-20 -13 -39 -26q-23 -16 -35 -32q-45 -67 -45 -204q0 -122 26 -221q40 -155 130 -155q36 0 56 33q10 17 22 64q30 112 30 203q0 29 -7 79q-8 58 -18 80q-69 151 -126 151q-17 0 -40 -41q-41 -74 -41 -195q0 -106 94 -254q39 -62 77 -62q39 0 39 134
q0 178 -188 338q-5 4 -5 11q0 15 15 15q5 0 10 -4q198 -168 198 -360q0 -68 -8 -100q-15 -64 -61 -64q-42 0 -75 38q-6 6 -50 73q-76 116 -76 235q0 135 54 226q24 40 57 40q77 0 153 -169q12 -25 20 -86q8 -52 8 -85q0 -57 -15 -143q-18 -103 -45 -145t-78 -42
q-108 0 -155 162q-31 105 -31 244q0 197 90 258q13 8 41 28q4 3 9 3q15 0 15 -15q0 -7 -6 -12z" />
    <glyph glyph-name="p" unicode="p" horiz-adv-x="486" 
d="M135 -218q0 -8 -14 -8q-16 0 -16 9q12 235 1 407q-5 45 -12 143q-2 61 -14 159q-14 123 -17 158q-1 16 15 16q14 0 15 -14q13 -105 31 -317q5 -48 12 -143q11 -173 -1 -410zM181 -187q-5 42 -7 93q-1 36 0 92q1 79 1 93q0 69 -4 130q1 32 0 104q-15 295 -15 330
q0 15 15 15t15 -15q0 -34 15 -328q-1 -32 0 -104q4 -62 4 -132q0 -23 -1 -72.5t-1 -74.5q0 -109 18 -178q5 -21 -14 -21q-9 0 -14 10q-14 28 -14 48q0 7 2 10zM21 -273q69 14 175 48q122 38 176 52q19 4 19 -15q0 -12 -11 -15q-55 -13 -177 -51q-106 -34 -176 -49
q-18 -4 -18 15q0 12 12 15zM16 617q64 44 200 94q4 2 33 18q18 10 37 10q20 0 64 -30q56 -38 78 -103q17 -50 17 -132q0 -189 -63 -354q-10 -28 -44 -57q-40 -34 -50 -50q-5 -7 -13 -7q-15 0 -15 15q0 4 2 8q11 16 50 51q34 30 42 50q61 160 61 344q0 85 -19 132
q-24 58 -89 96q-11 7 -21 7q-12 0 -30 -10q-25 -14 -30 -16q-67 -25 -99 -39q-54 -24 -95 -51q-4 -3 -8 -3q-15 0 -15 15q0 8 7 12zM275 11q1 -9 -34 -30q-5 -3 -10 -3q-14 0 -14 15q0 8 7 13q117 89 117 275v24q1 15 1 23q0 25 -4 42q-8 60 -17 119q-13 77 -38 111
q-17 20 -54 65q-3 4 -3 9q0 15 15 15q7 0 12 -6q62 -77 64 -80q21 -35 33 -104q22 -132 22 -171q0 -8 -1 -23v-24q0 -174 -96 -270z" />
    <glyph glyph-name="q" unicode="q" horiz-adv-x="505" 
d="M181 655q-60 -59 -84 -119t-24 -149q0 -94 19 -185q25 -124 75 -172q7 -6 11 -7q7 0 66 73l36 40q27 30 28 41q-11 18 -11 27q0 8 8 8q9 0 20 -8.5t13 -19.5q4 -21 -25 -57q-23 -24 -44 -49.5t-40 -50.5q-30 -34 -51 -34q-37 0 -83 95q-52 109 -52 299q0 95 26.5 160.5
t91.5 129.5q4 4 10 4q15 0 15 -15q0 -6 -5 -11zM146 626q-37 -82 -37 -143q0 -113 45 -209l100 -180q2 -4 2 -7q0 -15 -15 -15q-9 0 -13 8q-22 36 -70 120q-79 143 -79 283q0 68 39 155q4 9 13 9q16 0 16 -14q0 -4 -1 -7zM401 -313q0 11 2 43q1 27 0 43q-4 73 -15 207
q-8 52 -23 170q-3 26 -3 56q0 16 3 71q2 45 0 75q-12 217 -12 240q0 25 12 75h-77q-37 -5 -134 -19q-17 -2 -17 15q0 13 13 15q41 8 135 19h2h97q14 0 14 -17q0 1 -10 -46q-5 -22 -5 -42q0 -23 12 -238q2 -30 0 -75q-3 -55 -3 -71q0 -29 3 -54q8 -52 23 -170
q17 -161 13 -280q-1 -42 5 -65q2 -4 2 -8q0 -12 -12 -12q-25 0 -30 30q-7 33 5 38zM333 -302l-1 3q-16 64 -20 155q-2 78 -5 156q-5 98 -16 286l-12 318q0 7 -3.5 22t-3.5 21q0 15 16 15q8 0 13 -9q6 -14 8 -46q0 -24 1 -48q2 -94 11 -271q5 -97 16 -286q2 -77 5 -153
q3 -91 19 -152q10 -39 10 -67q0 -16 -15 -16q-14 0 -15 15q0 6 -7 22t-7 23q0 8 6 12zM251 -396l-30 -16l-6 9q85 33 169 67q100 38 174 51q18 3 18 -15q0 -13 -12 -15q-152 -27 -345 -98q-7 -3 -7 2q0 4 19 37q4 4 10 4q15 0 15 -15q0 -6 -5 -11z" />
    <glyph glyph-name="r" unicode="r" horiz-adv-x="465" 
d="M-15 614q134 78 221 101q19 6 19 -14q0 -11 -11 -14q-84 -23 -213 -99q-4 -2 -8 -2q-15 0 -15 15q0 8 7 13zM207 52q1 94 -1 130q-5 58 -15 170q-12 150 -12 349q0 15 15 15t15 -15q0 -198 12 -347q6 -59 15 -170v-175q0 -16 -15 -16q-9 0 -13 9q-13 26 -13 38t12 12z
M113 662q-2 -31 15 -156q12 -92 31 -387q1 -16 7 -59q5 -37 5 -58q0 -15 -15 -15t-15 15q0 20 -5 57q-6 42 -7 58q-6 96 -12 192.5t-19 192.5q-17 128 -15 162q1 14 15 14q16 0 15 -16zM187 473v64q5 52 51 118q52 76 106 76q89 0 89 -112q0 -47 -14 -89q-20 -57 -59 -57
q-45 0 -59 66q-6 30 -6 98q0 84 47 84q22 0 22 -16q0 -18 -18 -15q-21 5 -21 -53q0 -134 35 -134q21 0 34 50q9 36 9 66q0 82 -59 82q-38 0 -82 -63q-40 -59 -45 -105q0 1 0 -60q0 -15 -15 -15t-15 15zM56 -18q216 47 292 72q20 7 20 -14q0 -11 -10 -14q-78 -26 -296 -74
q-18 -4 -18 15q0 12 12 15z" />
    <glyph glyph-name="s" unicode="s" horiz-adv-x="404" 
d="M124 -7l1 -1l1 -3q2 -8 -2.5 -15.5t-11.5 -7.5q-5 0 -9 3q-43 23 -55 92q-5 56 -11 113l30 2q0 -27 11 -89q10 -57 8 -89q-2 -26 -1 -29q4 -10 25 -10q91 0 160 51q75 55 75 137q0 99 -55 183q-34 51 -127 142q-26 25 -47 36l-48 24q-35 21 -35 55q0 52 71 88
q61 30 117 30q90 0 55 2q40 -2 49 -20q6 -13 8 -38q0 -19 1 -39q3 -49 23 -134l-30 -4q-2 20 0 59q2 52 2 65q0 47 -9 73q-7 20 14 20q11 0 14 -10q11 -33 11 -79q0 -17 -1.5 -49t-1.5 -48t1 -29q1 -18 -15 -18q-12 0 -15 14q-19 86 -23 138q0 26 -6 66q-5 1 -77 1
q-42 0 -95 -23q-63 -28 -63 -65q0 -19 26 -32q20 -10 40 -19q25 -14 54 -42q25 -24 49 -48q143 -128 143 -299q0 -98 -87 -161q-78 -57 -178 -57q-48 0 -54 35v67l-12 72q-7 43 -7 73q0 17 15 17q13 0 15 -15q4 -44 7 -88q7 -58 26 -81l1 1q4 3 9 3q7 0 12 -6.5t2 -13.5z
M73 644q-14 -27 -28 -55t-14 -58q0 -35 20 -53l48 -30q36 -23 80 -76q52 -61 75 -80q87 -71 87 -213q0 -94 -59 -85q-13 2 -13 15q0 17 17 15q25 -4 25 55q0 128 -75 189q-24 20 -74 80q-44 53 -79 74q-52 33 -59 40q-23 23 -23 69q0 35 14 67q2 4 32 60q4 8 13 8
q15 0 15 -15q0 -3 -2 -7zM59 171q10 -57 46 -109q39 -57 86 -68q11 -3 11 -15q0 -19 -19 -15q-57 15 -103 81q-39 57 -51 120q-3 18 15 18q13 0 15 -12z" />
    <glyph glyph-name="t" unicode="t" horiz-adv-x="477" 
d="M32 643q172 43 187 47q104 22 192 22q15 0 15 -15t-15 -15q-86 0 -188 -22q-11 -3 -183 -47q-19 -4 -19 15q0 12 11 15zM190 793q-1 -27 -11 -170q-8 -109 -8 -168q0 -28 3 -81q1 -24 9 -57q9 -37 11 -55q8 -89 11 -106q10 -59 34 -101q19 -34 41 -34q18 0 76 82
q41 59 72 133q4 9 14 9q15 0 15 -14q0 -4 -1 -7q-23 -56 -59 -115q-44 -72 -83 -103q-18 -15 -34 -15q-49 0 -81 76q-22 53 -29 118q-1 23 -6 75q-9 34 -20 112q-3 55 -3 83q0 60 8 168q10 144 11 172q1 14 15 14q16 0 15 -16zM316 58q2 5 5 5q4 0 7 -7t2 -13q-3 -9 -9 -9
q-12 0 -33 27t-22 37.5t-2 32.5q-1 8 -9 47q-6 28 -6 48q0 52 -10 142.5t-10 144.5q0 112 12 225q2 30 10 91q-19 -16 -66 -58q-4 -4 -10 -4q-15 0 -15 15q0 6 5 11q35 29 107 97q2 1 4 1q7 0 15 -7t6 -11q-14 -28 -19 -68q-4 -35 -7 -71q-12 -110 -12 -221q0 -54 10 -144.5
t10 -142.5q0 -18 6 -46q8 -37 9 -45q-1 -11 -1 -29q4 -12 23 -48z" />
    <glyph glyph-name="u" unicode="u" horiz-adv-x="554" 
d="M-28 593q98 81 192 129q5 3 10 3q13 0 13 -13q0 -5 -3 -10q-20 -41 -24 -128q-1 -11 -1 -134q0 -35 10 -96q11 -71 13 -94q8 -120 44 -187q2 -4 2 -7q0 -15 -15 -15q-9 0 -13 8q-39 72 -48 199q-2 24 -13 95q-10 62 -10 97q0 135 0 119q1 70 14 118q-70 -40 -151 -108
q-5 -3 -10 -3q-15 0 -15 15q0 7 5 12zM93 626q-16 -95 -16 -177q0 -134 42 -268q51 -160 93 -160q11 0 27 48l18 58q17 47 28 117l18 120q19 103 19 190q0 16 -4 44t-4 42q0 18 5 34q1 3 15 2q14 -2 14 -6q0 -253 8 -358q-1 -21 0 -66q5 -20 12 -62q6 -131 42 -172l54 54
q30 33 42 63q-2 3 -5.5 10t-7.5 19q-2 3 1 5t5 -1l14 -12l15 -3q3 -1 6.5 -8t2.5 -10q-13 -42 -49 -81q-33 -34 -65 -68q-3 -2 -10 -3q-8 -1 -11 1q-56 42 -64 204q-5 20 -12 62q1 24 0 71q-8 105 -8 355l29 -4q-5 -20 -1 -50q6 -49 6 -62q0 -90 -19 -196q-10 -61 -19 -122
q-11 -71 -29 -119q-11 -37 -23 -75q-20 -51 -50 -51q-45 0 -81 71q-16 33 -40 109q-44 139 -44 278q0 84 16 181q2 13 15 13q18 0 15 -17zM455 74q1 2 -8 21q-3 9 -5 16q-11 44 -27 129q-20 202 -20 294q0 109 9 167q-42 -21 -136 -75q-4 -2 -8 -2q-15 0 -15 15q0 8 7 13
q31 20 85 47t81 45q11 -6 23 -16q-16 -62 -16 -194q0 -91 20 -292q1 -14 13 -67q12 -56 17 -68q10 -25 10 -33q0 -6 -2 -12q-5 -14 -27 -4l-11 11q-2 2 0 4q3 1 10 1z" />
    <glyph glyph-name="v" unicode="v" horiz-adv-x="486" 
d="M122 678q72 25 115 48q4 2 7 2q15 0 15 -15q0 -9 -8 -13q-43 -24 -116 -49q-109 -37 -121 -41q-3 -1 -6 -1q-14 0 -14 15q0 10 11 14.5t117 39.5zM97 633q5 -84 57 -279q17 -76 54 -228q5 -16 9 -57q4 -37 11 -56q1 1 17 111q10 66 40 179q32 121 41 177q8 47 15 94
q11 56 30 89q5 7 13 7q15 0 15 -15q0 -4 -2 -8q-17 -28 -27 -84q-7 -44 -14 -89q-10 -55 -41 -175q-30 -114 -40 -179l-12 -92q-13 -70 -30 -70q-6 0 -11 7q-24 28 -31 74q-11 77 -11 79q-16 73 -54 228q-30 109 -37 141q-18 79 -22 144q-1 16 15 16q14 0 15 -14zM281 650
q88 35 200 95q4 2 7 2q15 0 15 -15q0 -9 -8 -13q-113 -62 -202 -97q-4 -1 -7 -1q-14 0 -14 15q0 10 9 14zM198 489q30 -115 38 -184q9 -79 11 -96q9 -52 27 -93q1 -3 1 -7q0 -14 -16 -14q-9 0 -13 9q-24 57 -40 197q-7 69 -38 183q-44 165 -47 179q-4 18 15 18
q12 0 14.5 -12t47.5 -180z" />
    <glyph glyph-name="w" unicode="w" horiz-adv-x="759" 
d="M0 634l132 42q79 25 129 50q4 2 7 2q15 0 15 -15q0 -9 -8 -13q-51 -26 -131 -52l-134 -42q-8 -3 -14 2t-6 12q0 11 10 14zM416 656q-5 2 -1 6q5 4 8.5 15.5t8.5 15.5q3 3 14 -5.5t9 -12.5q-12 -24 -21 -73l-12 -78q-4 -21 -27 -80q-19 -50 -20 -80q-2 -35 -12 -83
q-10 -40 -19 -81q-8 -37 -11 -106q-2 -74 -8 -107q-1 -4 -13 -6q-13 -2 -15 1q-16 27 -30 74q-18 60 -25 75q-17 41 -34 107q-25 96 -28 108q-10 32 -54 150q-35 92 -47 152q-3 18 15 18q12 0 15 -12q11 -60 46 -151q44 -117 53 -149q17 -72 62 -211q10 -32 31 -96l4 80
q2 47 9 79q10 40 19 79q10 47 12 81q1 25 37 128q10 28 18 81q9 57 16 81zM311 150q-11 6 -7 18q3 12 15 12q11 0 19 -16l2 -4q0 -27 -7 -27q-6 0 -17 16l-2 3q0 5 -8 18q-9 17 -10 20q-21 55 -40 129q-46 188 -111 358q-1 3 -1 6q0 14 15 14q10 0 14 -10q65 -171 113 -360
q14 -60 19 -75q13 -43 30 -71q9 -16 9 -29q0 -29 -9 -29q-8 0 -24 27zM577 186q-13 36 -35 110q-21 96 -57 206q-55 166 -65 203q-6 19 14 19q11 0 14 -11q11 -36 66 -204q36 -110 58 -207q5 -24 27 -88q19 -56 24 -90q-13 -6 -28 -10q-8 13 -12 35.5t-8 32.5q0 2 2 4z
M585 77q19 96 26 237q5 119 11 238q5 79 22 123q4 10 14 10q15 0 15 -14q0 -3 -1 -6q-16 -42 -21 -120q-2 -61 -5 -123q-4 -88 -9.5 -176t-21.5 -174q-4 -28 -15 -86q-4 -14 -15 -14q-10 0 -14 14q-5 38 -24 115q-72 200 -108 337q-8 27 -39 108q-1 3 -1 6q0 14 15 14
q10 0 14 -10q14 -33 39 -110q37 -136 108 -335q6 -18 10 -34zM592 657q-1 -10 -23 -18l-30 -10q-3 -1 -7 -1q-15 0 -15 14q0 8 9 13q35 24 101 43t94 36q12 7 36 26q15 -19 15 -22q0 -4 -3 -7q1 1 2 3q-10 4 -9 13q0 2 1 6v1q-5 -2 -10 0q20 7 20 -14q0 -12 -12 -15
q-35 -25 -83 -41q-43 -14 -86 -27z" />
    <glyph glyph-name="x" unicode="x" horiz-adv-x="529" 
d="M72 658q31 -48 83 -148q3 -6 26 -67q15 -38 60 -136q38 -82 56 -138q11 -36 21 -71q16 -49 30 -62q4 -5 4 -11q0 -15 -15 -15q-6 0 -11 4q-17 18 -34 69q-12 38 -23 76q-18 57 -56 138q-45 97 -60 136q-19 50 -25 64q-15 35 -31.5 60t-50.5 87q-2 4 -2 7q0 15 16 15
q8 0 12 -8zM375 68q-11 31 -36 94q-36 80 -76 201q-43 128 -75 201q-14 31 -46 100q-1 3 -1 7q0 14 16 14q9 0 13 -9q15 -33 46 -100q31 -73 74 -201q41 -121 77 -201q15 -44 53 -130q1 -2 1 -4q0 -17 -17 -17q-3 0 -6 2q-26 19 -26 36q0 4 3 7zM2 643q31 30 78 47
q7 3 87 25q32 15 93 36q18 3 18 -13q0 -9 -9 -18q-2 0 -6 -3t-12 -3q-9 0 -9 5q0 3 3 7.5t9 11.5q11 -7 2 -15q5 1 9 -2h-1q-29 -13 -89 -34q-79 -22 -80 -23q-44 -16 -71 -43q-5 -4 -11 -4q-15 0 -15 15q0 6 4 11zM251 -52q126 102 250 157q3 1 7 1q14 0 14 -15
q0 -10 -9 -14q-121 -52 -244 -153q-4 -3 -9 -3q-15 0 -15 15q0 7 6 12zM382 669q-40 -103 -52 -138q-26 -79 -31 -144q-2 -18 -5.5 -29.5t-14.5 -11.5q-20 0 -14 20q2 18 7 55q13 83 82 258q4 10 14 10q15 0 15 -14q0 -3 -1 -6zM263 664q71 45 184 94q3 1 7 1q14 0 14 -16
q0 -9 -9 -13q-111 -48 -180 -92q-4 -2 -8 -2q-15 0 -15 15q0 8 7 13zM201 354l-44 -170q-25 -98 -33 -172v-45q0 -15 -15 -15t-15 15v48q4 74 31 174q23 86 46 171q3 12 15 12q19 0 15 -18zM22 -42q72 29 211 99q4 2 8 2q15 0 15 -15q0 -8 -7 -13q-40 -24 -106 -53
q-98 -42 -109 -48q-3 -1 -6 -1q-15 0 -15 16q0 8 9 13z" />
    <glyph glyph-name="y" unicode="y" horiz-adv-x="551" 
d="M61 637q43 -112 139 -367q19 -44 55 -136q3 -8 15.5 -56.5t12.5 -53.5q0 -14 -15 -14q-10 0 -14 10q-7 32 -27 104q-18 41 -55 136q-16 43 -139 367q-1 3 -1 6q0 14 15 14q10 0 14 -10zM298 131q-15 31 -41 94q-38 102 -111 308q-20 64 -25 117q-1 16 15 16q14 0 15 -14
q4 -47 24 -110q19 -53 37 -106q41 -128 103 -267q19 -45 22 -77q1 -18 -14 -18q-11 0 -15 12l-13 37q0 5 3 8zM84 -331q18 41 17 140q0 42 -23 42q-19 0 -33 -37q-10 -30 -10 -54q0 -58 50 -115q18 -20 31 -20q33 0 61 51q9 16 34 80q37 97 53 161q5 17 36 123q21 71 30 126
q10 33 27 109q15 89 27 234q2 20 11 75q8 47 8 75q0 15 15 15t15 -15q0 -29 -8 -76q-9 -57 -11 -76q-12 -147 -27 -238q-10 -34 -27 -107q-9 -56 -31 -128q-31 -108 -35 -125q-22 -84 -72 -207q-43 -107 -106 -107q-27 0 -53 30q-58 65 -58 135q0 39 17 75q21 46 56 46
q53 0 53 -72q1 -125 -33 -175q-6 -11 -13 -11t-13 13q2 10 3 25q0 4 2.5 6.5t6.5 1.5zM-23 610q33 21 135 73q98 51 132 74q4 2 8 2q15 0 15 -15q0 -8 -7 -13q-34 -22 -131 -73q-103 -53 -136 -74q-4 -2 -8 -2q-15 0 -15 15q0 8 7 13zM328 642q20 5 63 19q48 16 140 57
q4 2 7 2q15 0 15 -15q0 -9 -8 -13q-26 -15 -72 -28q-63 -19 -74 -23q-19 -10 -61 -27q-20 -7 -20 14q0 11 10 14z" />
    <glyph glyph-name="z" unicode="z" horiz-adv-x="508" 
d="M42 660q1 -2 73 -228q7 -20 -14 -20q-11 0 -14 10q-25 79 -73 228q-7 20 14 20q11 0 14 -10zM411 747q-21 -8 -62 -21q-16 -5 -77 -28q-41 -16 -85 -19q-64 -4 -79 -9q-2 -1 -69 -36q-4 -2 -7 -2q-15 0 -15 15q0 9 8 13q68 37 75 39q18 6 86 10q40 3 80 18q60 23 75 27
q19 8 38 15q31 11 46 11q22 0 22 -19q0 -10 -8.5 -19t-16.5 -9q-10 0 -11 14zM443 756q-61 -108 -96 -199q-32 -80 -69 -211q-7 -26 -22 -61q-18 -40 -25 -60q-19 -57 -38 -113q-24 -66 -48 -110q-4 -8 -13 -8q-15 0 -15 15q0 3 2 7q26 48 84 219q17 36 47 119
q37 133 69 214q36 93 98 202q4 8 13 8q15 0 15 -15q0 -4 -2 -7zM321 713q-17 -65 -34 -131q-18 -70 -40 -125q-17 -38 -50 -120q-15 -47 -29 -94q-18 -54 -38 -91q-36 -69 -41 -79q-20 -45 -27 -86q-1 2 0 3l-8 2q-8 -1 -7 -3q-13 6 -14 5l1 3q6 24 18 24t12 -19
q0 -8 -3 -18q0 -2 -14 5q-1 1 -2 1q-2 0 -6 -2t-5 -2q-3 0 -2 7q9 52 46 123q45 87 56 119q11 38 35 112q17 39 50 120q22 58 72 254q3 11 15 11q19 0 15 -19zM415 180q-4 -21 -17 -66q-1 -4 -23 -61q-13 -32 -28 -32q-9 0 -15 13q-3 6 2 8q6 3 7.5 -1t3.5 -4q1 0 11 24
q5 26 14 61q10 39 20 77q12 45 26 75q2 3 7 3q7 0 15 -4t7 -8q-4 -16 -4 -36q0 -51 34 -157q2 -6 -3 -13t-11 -7q-44 0 -100 -16q-12 -4 -96 -33q-25 -2 -70 -13q-16 -9 -52 -23q-35 -3 -113 -11q-17 -2 -17 15q0 16 56 20q71 5 83 10q16 10 52 23q17 1 51 7q81 29 91 32
q53 16 95 18q-19 60 -26 99zM134 662q-32 -54 -39 -70q-14 -35 -14 -81q0 -4 11 -41q6 -19 -14 -19q-11 0 -14 11q-13 40 -13 49q0 50 15 89q9 20 42 78q5 7 13 7q15 0 15 -15q0 -4 -2 -8z" />
    <glyph glyph-name="braceleft" unicode="{" horiz-adv-x="312" 
d="M-20 345h1q44 0 62 -101q7 -66 15 -131q15 -76 37 -112q29 -50 81 -50q60 0 90 54q4 8 13 8q15 0 15 -15q0 -3 -2 -7q-39 -70 -116 -70q-87 0 -126 103q-21 58 -31 174q-3 26 -10 61q-13 56 -28 56q-16 0 -29.5 -9.5t-27.5 -18.5q-4 -4 -9 -4q-15 0 -15 15q0 7 6 12
q33 29 59 65q31 43 33 72q1 22 1 47q0 21 -1 59.5t-1 55.5q0 77 22 126q28 64 104 117q5 3 9 3q15 0 15 -15q0 -8 -6 -12q-75 -52 -98 -112q-19 -49 -16 -146q0 -14 2 -47q1 -26 1 -40q0 -75 -50 -138zM62 344l2 -4q4 -5 27 -34l5 -6q12 -15 18 -69l10 -76q9 -57 18 -113
q18 -74 60 -88q11 -3 11 -14q0 -20 -19 -14q-56 17 -77 95q-12 64 -23 128q-2 12 -8 67q-4 42 -14 65l-4 6q-37 47 -37 55q0 10 16 29t16 69q0 38 -13 114t-13 112q0 91 62 153q9 9 30 31q4 5 11 5q15 0 15 -15q0 -5 -4 -10q-20 -19 -56 -63q-28 -44 -28 -107q0 -36 13 -111
t13 -109q0 -66 -28 -93zM126 836l78 12q17 2 17 -15q0 -13 -13 -15l-78 -12q-17 -2 -17 15q0 13 13 15z" />
    <glyph glyph-name="bar" unicode="|" horiz-adv-x="248" 
d="M62 910q0 -13 -2.5 -37.5t-2.5 -40.5t6 -51q6 -39 7 -52q-1 -30 0 -100q9 -121 34 -214q16 -58 21 -147q4 -74 7 -149q2 -24 17 -80q14 -50 14 -80q0 -15 -15 -15t-15 15q0 29 -14 79q-15 55 -17 79l-6 146q-5 87 -20 144q-27 96 -36 220q1 30 0 100q-1 13 -7 53
q-6 36 -6 52t2 39q3 27 3 40.5t15 13.5q16 0 15 -15zM187 -8q0 50 -16 178q-15 107 -42 321q-3 34 -27 177q-17 104 -17 185q0 4 9 86q2 13 15 13q17 0 15 -17q-9 -80 -9 -82q0 -80 17 -184q23 -141 27 -174l42 -321q16 -130 16 -184q0 -22 -61 -62q-4 -3 -8 -3
q-15 0 -15 15q0 8 7 12q37 26 47 40zM36 919q16 11 33.5 23t33.5 12q29 0 29 -17q0 -21 -20 -14q-4 1 -8 1q-10 0 -32 -16.5t-29 -16.5q-15 0 -15 15q0 9 8 13z" />
    <glyph glyph-name="braceright" unicode="}" horiz-adv-x="275" 
d="M53 782q-18 5 -52 15l-65 -25q-3 -1 -6 -1q-14 0 -14 15q0 10 10 14l70 27q4 2 36.5 -7.5t39 -13.5t20.5 -54q28 -99 35 -211q3 -44 9 -64q13 -36 46 -36q13 0 34.5 10.5t26.5 10.5q14 0 14 -15q0 -8 -7 -13q-78 -58 -78 -185q0 -15 2 -43.5t2 -42.5q0 -125 -102 -199
q-41 -30 -55 -52l-20 21q92 52 92 208q0 25 -4 73t-4 73q0 84 44 124q-50 42 -63 124l-14 142q-13 79 -62 117q-6 5 -6 12q0 15 15 15q5 0 9 -3q58 -44 73 -130q7 -74 14 -147q14 -82 67 -118q19 -12 0 -25q-47 -30 -47 -114q0 -20 3 -52q4 -40 4 -48q1 -23 1 -43
q0 -173 -108 -234q-5 -3 -10 -3q-13 0 -13 13q0 6 3 11q16 24 59 55.5t58 53.5l2 4q35 52 35 133q0 14 -1 43t-1 43q0 91 41 151h-4q-42 0 -63 32q-15 24 -20 72q-2 36 -5 72q-12 108 -42 195h1z" />
    <glyph glyph-name="asciitilde" unicode="~" horiz-adv-x="346" 
d="M-9 703q53 124 129 124q26 0 77.5 -13t77.5 -13q8 0 16 19q5 13 9 26q4 9 13 9q16 0 16 -15q0 -3 -1 -6q-9 -21 -17 -41q-13 -22 -36 -22q-27 0 -78 13t-77 13q-56 0 -101 -106q-4 -9 -14 -9q-15 0 -15 14q0 4 1 7zM27 743q10 0 32 2q17 2 31 2q17 0 46.5 -10t45.5 -10
q40 0 70 48q14 22 36 82q4 10 14 10q15 0 15 -14q0 -46 -44.5 -101t-90.5 -55q-17 0 -46.5 10t-45.5 10q-13 0 -31 -2q-21 -2 -30 -2q-16 -1 -16 15q0 14 14 15z" />
    <glyph glyph-name="copyright" unicode="&#xa9;" horiz-adv-x="710" 
d="M460 619v-69q-57 22 -107 22q-115 0 -115 -127q0 -131 125 -131q48 0 103 26v-66q-59 -19 -135 -19q-88 0 -141 50t-53 138t52.5 138t141.5 50q73 0 129 -12zM43 535l11 -3q0 -28 -17 -35q-7 -3 -17 -1q-25 6 -18 33q0 2 6 15l11 -3q-5 -8 -6 -12q-3 -11 11 -15
q11 -2 15.5 4t3.5 17zM30 578q2 4 8 4q7 0 15 -5.5t6 -11.5q-2 -5 -9 -4q-5 0 -10 2q-14 7 -10 15zM68 585q-10 18 -30 14q-11 -3 -18 -17q-6 -14 0 -25q10 -18 30 -13q11 2 18 17q6 14 0 24zM67 636q4 5 12 1q7 -4 10 -9.5t1 -8.5q-3 -4 -9 -4l-13 10q-4 7 -1 11zM42 622
l55 -40l10 15l-14 10l-5 2l1 1q9 2 14 9t2 17q-8 20 -29 21q-18 1 -18 -17q-1 -5 2 -9l-1 -1l-6 6zM131 627l-2 23l-48 23l14 13l28 -14l-9 31l9 8l21 -71zM150 729l4 -9l1 1q-1 11 8 18l2 1l8 -14q-13 -2 -13 -13l17 -26l-15 -10l-27 42zM199 700l-21 45l16 7l21 -45z
M175 752l-6 12l16 7l6 -12zM244 732q-7 -2 -10 9q-2 6 -1 10q1 6 5 7t9 -2l4 -15q-2 -7 -7 -9zM245 770v-5h-1q-8 3 -14 2q-21 -6 -14 -31q7 -24 25 -18q11 3 13 14h1l1 -5q1 -6 0 -9q-5 -11 -27 -7l2 -12q18 -2 32 6t10 25l-13 44zM285 728l-4 71l17 1l2 -21l-1 -9h1
q5 10 16 11q15 1 16 -14l2 -36l-18 -1l-2 30q0 8 -5 7q-4 0 -8 -7l2 -31zM346 770l1 10l5 -1l1 8l18 1l-1 -10l9 -1l-1 -10l-9 1l-3 -23q0 -7 6 -8q2 0 4 1l-1 -10q-4 -2 -10 -1q-18 2 -16 17l2 25zM453 767q28 0 28 -29q0 -19 -17 -26q-26 -10 -37 16q-6 14 2.5 26.5
t23.5 12.5zM466 706q14 5 19 19q6 13 0 27q-5 13 -18 19q-14 5 -27 0q-22 -9 -22 -33q0 -18 15.5 -28.5t32.5 -3.5zM446 757q-8 -2 -11 -11q-4 -8 0 -16q5 -11 25 -14l3 5q-20 -1 -20 15q0 8 5.5 12.5t12.5 1.5q6 -2 11 -7l2 6q-15 12 -28 8zM501 674l9 10q5 1 16 0
q23 -2 30 6q12 13 -18 23l7 8q24 -11 29 -26q7 -22 -18 -23q-4 0 -18 1q-10 1 -14 -2l22 -20l-8 -10zM582 641q8 6 12 8q9 3 13 -2q5 -7 -14 -21q-10 -8 -16 -10q-7 -3 -10 2q-6 8 15 23zM582 601q25 3 36 26q6 14 -3 26.5t-24 10.5q-26 -3 -35 -26q-6 -14 2.5 -26t23.5 -11
zM617 584q10 4 14 5q9 2 12 -4q4 -8 -18 -18q-12 -5 -17 -6q-8 -1 -10 4q-4 9 19 19zM609 546q26 -3 40 18q9 12 3 26t-21 15q-26 2 -40 -18q-9 -12 -3 -26q7 -14 21 -15zM640 522q10 2 14 2q10 0 11 -7q2 -9 -21 -14q-12 -3 -18 -2q-8 0 -9 6q-2 9 23 15zM647 485
q34 7 28 35q-6 27 -40 20q-34 -8 -28 -35q6 -28 40 -20zM0 339l53 18l-8 23l10 3l22 -62l-11 -4l-8 23l-52 -18zM34 265l9 4l-1 1q-8 -1 -14.5 5.5t-4.5 14.5q2 5 8 9l30 18l9 -15l-25 -15q-7 -4 -5 -8t11 -4l26 15l9 -15l-43 -25zM105 231q0 -10 -15 -15q-5 -2 -8.5 1
t-1.5 9l12 11q13 4 13 -6zM94 263l-49 -45l11 -13l14 12l2 3h1q1 -10 5 -14q7 -8 17 -7q22 4 27 24q4 17 -13 21q-5 2 -10 0v1l7 5zM152 193q3 -2 3 -6q0 -9 -11 -16q-5 -3 -9 -1q-4 3 -4 9l10 13q7 4 11 1zM138 218l-39 -55l14 -10l10 14l2 4h1q3 -9 8 -13q9 -6 18 -3
q21 8 21 29q1 18 -17 18q-5 1 -9 -2l-1 1l6 6zM198 125l5 8h-1q-4 -3 -9 -4q-14 -2 -19 9q-1 6 1 12l14 33l17 -7l-12 -28q-2 -3 -2 -5t3 -4q4 -1 11 3l12 28l16 -7l-19 -45zM237 112l2 12q10 -6 17 -8q8 -1 8 2q1 3 -7.5 9l-8.5 6q-6 6 -5 13q2 8 11 10q12 4 32 -5l-3 -11
q-7 4 -13 6q-8 1 -9 -3q0 -2 6.5 -6t12 -8.5t3.5 -11.5q-3 -16 -27 -11q-10 2 -19 6zM351 99l-25 64l16 2l17 -43v0l4 46l14 2l16 -44v0l5 47l11 1l-7 -68l-16 -2l-15 38v0l-4 -41zM441 130q-2 1 -3 3q-2 6 6 9l4 1l2 -7q-3 -9 -9 -6zM470 140q-3 -1 -4 3l-7 18q-4 9 -12 11
q-15 2 -32 -13l4 -10q5 6 14 9q8 3 10 -3l1 -2l-8 -4q-19 -7 -13 -23q2 -7 8 -9q16 -6 22 10h1q4 -4 13 0q4 1 8 4l-3 9h-2zM481 192l4 -9l1 1q-1 8 5.5 15t14.5 5q5 -2 9 -8l19 -30l-15 -9l-16 25q-4 7 -8 4q-3 -2 -3 -11l16 -25l-15 -10l-27 42zM561 206q-5 -4 -11.5 1
t-8.5 11q-3 5 0 9q4 3 9 2l12 -12q2 -7 -1 -11zM588 216l-50 50l-12 -12l14 -15l4 -2v-1q-9 -1 -14 -6q-8 -8 -6 -18q4 -21 25 -25q17 -4 21 13q1 5 -1 10l1 1l5 -7zM582 276q3 6 12 -1l-8 -12q-8 7 -4 13zM592 293q-12 0 -19 -12t-4 -23q7 -19 27 -18t31 33l-10 7
q-7 -29 -23 -21l17 25q-12 8 -19 9zM599 326l8 -5v1q-3 4 -4 9t1 10l1 2l14 -6q-5 -5 -5 -12q0 -4 2 -7l28 -12l-7 -17l-46 21zM655 338l-10 3q6 9 8 17q2 7 -2 8q-3 1 -9 -7.5t-7 -8.5q-6 -6 -12 -4q-9 2 -11 11q-2 13 7 32l11 -3q-5 -8 -6 -14q-2 -7 2 -8q2 -1 7 7
q4 5 8.5 10t11.5 4q8 -2 11 -11q3 -15 -9 -36zM5 32v-5v0q4 6 10 6q7 0 7 -6v0q4 6 10 6q8 0 8 -8v-21h-6v20q0 5 -3 5q-4 0 -9 -6v-19h-5v20q0 5 -4 5t-8 -6v-19h-5v28h5zM50 4v28h5v-28h-5zM50 37v5h5v-5h-5zM70 32l-1 -5h1q4 6 10 6q8 0 8 -8v-21h-5v20q0 4 -4 4
q-5 0 -9 -6v-18h-5v28h5zM107 8q-6 0 -6 10q0 11 7 11q4 0 8 -4v-12q-4 -5 -9 -5zM121 4v41h-5v-12v-4v0q-3 4 -9 4q-11 0 -11 -16q0 -14 10 -14q7 0 10 6v0v-5h5zM131 4v41h5v-41h-5zM169 4h-5v5v0q-4 -6 -10 -6q-8 0 -8 9v20h5v-20q0 -4 4 -4q5 0 9 6v18h5v-28zM184 32v-5
v0q4 6 10 6q8 0 8 -8v-21h-5v20q0 4 -4 4q-5 0 -9 -6v-18h-5v28h5zM231 32v-4q-4 1 -7 1q-9 0 -9 -11t9 -11q4 0 7 2v-4q-5 -2 -8 -2q-13 0 -13 15t13 15q4 0 8 -1zM239 4v41h5v-13v-5v0q4 6 10 6q8 0 8 -8v-21h-5v20q0 4 -4 4q-5 0 -9 -6v-18h-5zM285 12q-2 0 -2 4
q0 12 9 12h4l-1 -5q-5 -11 -10 -11zM296 31q-1 1 -3 1q-14 0 -14 -18q0 -5 5 -5q6 0 10 9v0v-2q-1 -3 -1 -4q0 -3 4 -3q13 0 13 15q0 16 -17 16q-24 0 -24 -24q0 -16 17 -16q5 0 9 2l-1 3q-3 -2 -8 -2q-14 0 -14 13q0 21 21 21q14 0 14 -13q0 -12 -8 -12q-2 0 -2 1v2l3 16
h-4zM325 8q-5 0 -5 4q0 6 9 6h2v-8q-3 -2 -6 -2zM339 7q-3 0 -3 5v12q0 9 -9 9q-5 0 -10 -2v-5q5 3 9 3q5 0 5 -6v-2h-2q-14 0 -14 -10q0 -8 8 -8q5 0 9 5q1 -5 5 -5q2 0 3 1v3h-1zM347 4v41h5v-41h-5zM368 32h6v-4h-6v-15q0 -6 4 -6q2 0 3 1v-4q-2 0 -4 -1q-8 0 -8 8v17h-4
v4h4v5l5 1v-6zM389 8q-5 0 -5 4q0 6 9 6h3v-8q-4 -2 -7 -2zM403 7q-2 0 -2 5v12q0 9 -9 9q-5 0 -10 -2v-5q4 3 8 3q6 0 6 -6v-2h-3q-14 0 -14 -10q0 -8 9 -8q4 0 8 5q1 -5 5 -5q2 0 4 1l-1 3h-1zM419 4l-12 28h5l10 -23l10 23h4l-12 -28h-5zM442 4v28h5v-28h-5zM442 37v5h5
v-5h-5zM456 5v5q5 -3 8 -3q6 0 6 4q0 3 -10 8q-4 2 -4 6q0 8 10 8q2 0 7 -1v-4q-5 1 -7 1q-5 0 -5 -4l10 -7q4 -2 4 -6q0 -9 -11 -9q-3 0 -8 2zM489 32h7v-4h-7v-15q0 -6 5 -6q1 0 2 1v-4q-2 0 -4 -1q-8 0 -8 8v17h-3v4h3v5l5 1v-6zM511 8q-5 0 -5 4q0 6 9 6h2v-8
q-3 -2 -6 -2zM525 7q-3 0 -3 5v12q0 9 -9 9q-5 0 -10 -2v-5q5 3 9 3q5 0 5 -6v-2h-2q-14 0 -14 -10q0 -8 8 -8q5 0 9 5q0 -5 4 -5q3 0 4 1v3h-1zM533 4v6h6v-6h-6zM569 32v-4q-4 1 -8 1q-8 0 -8 -11t9 -11q4 0 7 2v-4q-5 -2 -8 -2q-14 0 -14 15t14 15q3 0 8 -1zM580 18
q0 11 8 11t8 -11t-8 -11t-8 11zM602 18q0 15 -14 15q-13 0 -13 -15t13 -15q14 0 14 15zM615 32l-1 -5h1q3 6 9 6q7 0 7 -6h1q3 6 9 6q8 0 8 -8v-21h-5v20q0 5 -4 5t-8 -6v-19h-5v20q0 5 -4 5t-8 -6v-19h-6v28h6z" />
  </font>
</defs>
</svg>
